<svg width="128" height="134" viewBox="0 0 128 134" fill="none" xmlns="http://www.w3.org/2000/svg">
<circle cx="64" cy="64" r="64" fill="#FFCEAA"/>
<path d="M64 31C73.3249 31 80.8944 37.6246 80.9971 45.8311C90.0093 47.9538 96 51.7145 96 56C96 62.6274 81.6731 68 64 68C46.3269 68 32 62.6274 32 56C32 51.7146 37.9902 47.9539 47.002 45.8311C47.1046 37.6246 54.6751 31 64 31Z" fill="white"/>
<path d="M56.0064 89C47.7007 81 36.0727 61.4 56.0064 47V89Z" fill="white"/>
<path d="M55.3821 87H71.9935V47.2086C64.1031 43.2086 57.6316 45.5419 55.3821 47.2086V87Z" fill="white"/>
<path d="M71.9936 89C80.2993 81 91.9273 61.4 71.9936 47V89Z" fill="white"/>
<path d="M73.8916 95C73.8916 98.9999 84.4186 101.667 89.1797 102.5C98.1378 104.431 103.069 108.464 105.604 112.559C94.405 122.183 79.8398 128 63.915 128C48.0202 128 33.4801 122.204 22.2891 112.612C24.8141 108.499 29.7503 104.44 38.748 102.5C43.5095 101.666 54.1152 98.9997 54.1152 95V82H73.8916V95Z" fill="white"/>
</svg>
