<svg width="140" height="140" viewBox="0 0 140 140" fill="none" xmlns="http://www.w3.org/2000/svg">
<path d="M70.8704 33.3407C70.8704 33.3407 69.4172 14.9365 104.233 19.6401C104.233 19.6401 102.82 34.5977 70.8704 33.3407Z" fill="#009245" stroke="#006259" stroke-width="5" stroke-miterlimit="10"/>
<ellipse cx="70" cy="77.3103" rx="53" ry="45" fill="#006259"/>
<ellipse cx="70" cy="77.3103" rx="47" ry="39" fill="#FF9D1F"/>
<circle cx="89" cy="73.3103" r="9" fill="#FFEED9"/>
<circle cx="87.5" cy="72.8103" r="7.5" fill="#006259"/>
<circle cx="53" cy="73.3103" r="9" fill="#FFEED9"/>
<circle cx="51.5" cy="72.8103" r="7.5" fill="#006259"/>
<path d="M82 65.3103H96" stroke="#006259" stroke-width="3" stroke-linecap="round"/>
<path d="M46 65.3103H60" stroke="#006259" stroke-width="3" stroke-linecap="round"/>
<path d="M65.4663 69.5243C67.3928 64.102 75.0612 64.102 76.9877 69.5243L78.9167 74.9534C80.3306 78.9332 77.3794 83.1137 73.1559 83.1137H69.2981C65.0747 83.1137 62.1234 78.9331 63.5374 74.9534L65.4663 69.5243Z" fill="#006259"/>
<path d="M77.9345 89.4979C75.9388 91.3659 70.3994 94.0369 64.2078 89.7774" stroke="#006259" stroke-width="3" stroke-linecap="round"/>
</svg>
