<svg width="24" height="24" viewBox="0 0 24 24" fill="none" xmlns="http://www.w3.org/2000/svg">
<path d="M0.323776 16.2126C1.36548 14.5539 1.91874 12.1731 1.91874 9.33229C1.91874 6.85721 2.98084 4.48351 4.8714 2.73336C6.76196 0.983221 9.3261 0 11.9998 0C14.6734 0 17.2376 0.983221 19.1281 2.73336C21.0187 4.48351 22.0808 6.85721 22.0808 9.33229C22.0808 12.1742 22.6316 14.5539 23.6733 16.2126C23.8859 16.551 23.9986 16.9351 24 17.3265C24.0015 17.7178 23.8917 18.1027 23.6817 18.4424C23.4731 18.7823 23.1702 19.0644 22.8043 19.2597C22.4385 19.455 22.023 19.5564 21.6007 19.5534H17.2587C17.1396 20.7684 16.534 21.8983 15.561 22.721C14.5879 23.5438 13.3176 24 11.9998 24C10.6819 24 9.41162 23.5438 8.43855 22.721C7.46547 21.8983 6.85991 20.7684 6.74082 19.5534H2.39878C1.97711 19.5558 1.56235 19.4541 1.19721 19.2589C0.832077 19.0636 0.529757 18.7818 0.321375 18.4424C0.110455 18.1032 -0.000358582 17.7186 6.29425e-05 17.3272C0.000484467 16.9358 0.112125 16.5514 0.323776 16.2126ZM11.9998 21.3309C12.5531 21.3311 13.0895 21.1542 13.5181 20.8303C13.9467 20.5063 14.2413 20.0553 14.352 19.5534H9.64751C9.75818 20.0553 10.0528 20.5063 10.4814 20.8303C10.91 21.1542 11.4464 21.3311 11.9998 21.3309ZM20.8014 16.887C19.7393 14.8872 19.2005 12.3475 19.2005 9.33229C19.2005 7.56438 18.4418 5.86888 17.0914 4.61877C15.741 3.36867 13.9095 2.66637 11.9998 2.66637C10.09 2.66637 8.25847 3.36867 6.90807 4.61877C5.55767 5.86888 4.79903 7.56438 4.79903 9.33229C4.79903 12.3464 4.26137 14.8872 3.19926 16.887H20.8014Z" fill="#F78938"/>
</svg>
