<svg width="32" height="42" viewBox="0 0 32 42" fill="none" xmlns="http://www.w3.org/2000/svg">
<path d="M3.99999 14.0002H4.35779C4.98949 14.0002 5.3059 14.0002 5.56355 14.1142C5.79071 14.2147 5.98494 14.3765 6.12499 14.5816C6.28358 14.8139 6.34085 15.1241 6.45516 15.7433L9.33338 31.3336L23.2291 31.3336C23.8333 31.3336 24.1364 31.3336 24.3867 31.2268C24.6078 31.1325 24.7985 30.9797 24.9401 30.7855C25.1002 30.5659 25.1681 30.2718 25.3037 29.6844L25.3047 29.6802L27.397 20.6135L27.3974 20.6116C27.6031 19.7205 27.7062 19.2738 27.593 18.9234C27.4937 18.616 27.2847 18.3554 27.0074 18.1895C26.6913 18.0002 26.2344 18.0002 25.3183 18.0002H7.33333M24 38.0002C23.2636 38.0002 22.6667 37.4033 22.6667 36.6669C22.6667 35.9305 23.2636 35.3336 24 35.3336C24.7364 35.3336 25.3333 35.9305 25.3333 36.6669C25.3333 37.4033 24.7364 38.0002 24 38.0002ZM10.6667 38.0002C9.93028 38.0002 9.33333 37.4033 9.33333 36.6669C9.33333 35.9305 9.93028 35.3336 10.6667 35.3336C11.403 35.3336 12 35.9305 12 36.6669C12 37.4033 11.403 38.0002 10.6667 38.0002Z" stroke="#F78938" stroke-width="3.2" stroke-linecap="round" stroke-linejoin="round"/>
<path d="M11.3333 6.61523C11.3333 9.84978 14.163 12.5246 15.4155 13.5501C15.5947 13.6969 15.6854 13.7712 15.8191 13.8088C15.9233 13.8381 16.0765 13.8381 16.1807 13.8088C16.3146 13.7711 16.4047 13.6976 16.5846 13.5502C17.8371 12.5247 20.6666 9.85008 20.6666 6.61553C20.6666 5.39145 20.175 4.21737 19.2998 3.35181C18.4246 2.48626 17.2377 2 16 2C14.7624 2 13.5753 2.48634 12.7002 3.35189C11.825 4.21744 11.3333 5.39116 11.3333 6.61523Z" fill="#F78938"/>
<path d="M14.6667 6C14.6667 6.73638 15.2636 7.33333 16 7.33333C16.7364 7.33333 17.3333 6.73638 17.3333 6C17.3333 5.26362 16.7364 4.66667 16 4.66667C15.2636 4.66667 14.6667 5.26362 14.6667 6Z" fill="#F78938"/>
<circle cx="16" cy="6.00005" r="1.4" fill="#FFEED9" stroke="#FFEED9" stroke-width="0.4"/>
</svg>
