<svg width="14" height="13" viewBox="0 0 14 13" fill="none" xmlns="http://www.w3.org/2000/svg">
<path d="M2.73307 11.2802L3.74905 10.4674L3.75652 10.4617C3.96833 10.2923 4.07521 10.2068 4.19445 10.1458C4.30144 10.0912 4.41552 10.0514 4.5332 10.0272C4.66585 10 4.80402 10 5.08138 10H10.8687C11.614 10 11.9871 10 12.272 9.85482C12.5229 9.72698 12.727 9.5228 12.8548 9.27192C13 8.98698 13 8.61433 13 7.86905V2.79794C13 2.05266 13 1.67947 12.8548 1.39453C12.727 1.14365 12.5225 0.93982 12.2716 0.811989C11.9864 0.666664 11.6135 0.666664 10.8668 0.666664H3.13346C2.38673 0.666664 2.01308 0.666664 1.72786 0.811989C1.47698 0.93982 1.27316 1.14365 1.14532 1.39453C1 1.67974 1 2.05339 1 2.80013V10.4475C1 11.1579 1 11.5131 1.14564 11.6955C1.2723 11.8542 1.46429 11.9465 1.66732 11.9463C1.90077 11.9461 2.17829 11.7241 2.73307 11.2802Z" stroke="#F78938" stroke-width="1.33333" stroke-linecap="round" stroke-linejoin="round"/>
</svg>
