<svg width="24" height="24" viewBox="0 0 24 24" fill="none" xmlns="http://www.w3.org/2000/svg">
<path d="M6.87968 18.4282L8.09884 17.4529L8.10781 17.446C8.36198 17.2427 8.49024 17.1401 8.63333 17.0669C8.76171 17.0014 8.89861 16.9536 9.03983 16.9246C9.19901 16.8919 9.36482 16.8919 9.69764 16.8919H16.6425C17.5368 16.8919 17.9845 16.8919 18.3264 16.7177C18.6275 16.5643 18.8724 16.3193 19.0258 16.0183C19.2 15.6763 19.2 15.2291 19.2 14.3348V8.24948C19.2 7.35514 19.2 6.90731 19.0258 6.56539C18.8724 6.26433 18.627 6.01973 18.3259 5.86634C17.9836 5.69195 17.5362 5.69195 16.6401 5.69195H7.36014C6.46406 5.69195 6.01568 5.69195 5.67343 5.86634C5.37237 6.01973 5.12777 6.26433 4.97438 6.56539C4.79999 6.90764 4.79999 7.35602 4.79999 8.2521V17.4289C4.79999 18.2815 4.79999 18.7077 4.97475 18.9266C5.12674 19.117 5.35714 19.2278 5.60077 19.2275C5.88091 19.2272 6.21394 18.9608 6.87968 18.4282Z" stroke="#F78938" stroke-width="1.6" stroke-linecap="round" stroke-linejoin="round"/>
</svg>
