<svg width="25" height="24" viewBox="0 0 25 24" fill="none" xmlns="http://www.w3.org/2000/svg">
<path d="M5.84961 19.9203L7.37357 18.7012L7.38478 18.6926C7.70249 18.4384 7.86281 18.3101 8.04168 18.2188C8.20216 18.1368 8.37328 18.0771 8.5498 18.0408C8.74877 18 8.95603 18 9.37207 18H18.0531C19.171 18 19.7306 18 20.158 17.7822C20.5343 17.5905 20.8405 17.2842 21.0322 16.9079C21.25 16.4805 21.25 15.9215 21.25 14.8036V7.19691C21.25 6.07899 21.25 5.5192 21.0322 5.0918C20.8405 4.71547 20.5337 4.40973 20.1574 4.21799C19.7296 4 19.1703 4 18.0502 4H6.4502C5.33009 4 4.76962 4 4.3418 4.21799C3.96547 4.40973 3.65973 4.71547 3.46799 5.0918C3.25 5.51962 3.25 6.08009 3.25 7.2002V18.6712C3.25 19.7369 3.25 20.2696 3.46846 20.5433C3.65845 20.7813 3.94644 20.9198 4.25098 20.9195C4.60115 20.9191 5.01744 20.5861 5.84961 19.9203Z" stroke="currentColor" stroke-width="2" stroke-linecap="round" stroke-linejoin="round"/>
<line x1="9.25" y1="9" x2="15.25" y2="9" stroke="currentColor" stroke-width="2" stroke-linecap="round"/>
<line x1="9.25" y1="13" x2="15.25" y2="13" stroke="currentColor" stroke-width="2" stroke-linecap="round"/>
</svg>
