<svg width="80" height="80" viewBox="0 0 80 80" fill="none" xmlns="http://www.w3.org/2000/svg">
<path d="M40.4975 19.0519C40.4975 19.0519 39.6671 8.5352 59.5619 11.223C59.5619 11.223 58.7543 19.7702 40.4975 19.0519Z" fill="#009245" stroke="#006259" stroke-width="2.85714" stroke-miterlimit="10"/>
<ellipse cx="40.0001" cy="44.1774" rx="30.2857" ry="25.7143" fill="#006259"/>
<ellipse cx="40.0001" cy="44.1774" rx="26.8571" ry="22.2857" fill="#9ECF59"/>
<circle cx="50.8572" cy="41.8916" r="5.14286" fill="#FFEED9"/>
<circle cx="50.0001" cy="41.6059" r="4.28571" fill="#006259"/>
<circle cx="30.2858" cy="41.8916" r="5.14286" fill="#FFEED9"/>
<circle cx="29.4288" cy="41.6059" r="4.28571" fill="#006259"/>
<path d="M46.8572 37.3202H54.8572" stroke="#006259" stroke-width="1.71429" stroke-linecap="round"/>
<path d="M26.2858 37.3202H34.2858" stroke="#006259" stroke-width="1.71429" stroke-linecap="round"/>
<path d="M37.4094 39.7283C38.5103 36.6298 42.8922 36.6298 43.9931 39.7283L45.0953 42.8306C45.9033 45.1048 44.2169 47.4936 41.8035 47.4936H39.599C37.1856 47.4936 35.4992 45.1048 36.3071 42.8306L37.4094 39.7283Z" fill="#006259"/>
<path d="M46.4431 49.7143C45.7314 51.1048 43.2698 53.6126 39.1166 52.5202" stroke="#006259" stroke-width="1.71429" stroke-linecap="round"/>
<ellipse cx="30.5174" cy="42.4827" rx="7.66019" ry="5.33984" fill="black"/>
<ellipse cx="50.3772" cy="42.4827" rx="7.66019" ry="5.33984" fill="black"/>
<path d="M37.0427 40.9122H44.9866" stroke="black" stroke-width="1.71429" stroke-linecap="round"/>
<mask id="mask0_863_2766" style="mask-type:alpha" maskUnits="userSpaceOnUse" x="22" y="37" width="37" height="11">
<ellipse cx="30.5174" cy="42.4827" rx="7.66019" ry="5.33984" fill="black"/>
<ellipse cx="50.3772" cy="42.4827" rx="7.66019" ry="5.33984" fill="black"/>
<path d="M37.0427 40.9122H44.9866" stroke="black" stroke-width="1.71429" stroke-linecap="round"/>
</mask>
<g mask="url(#mask0_863_2766)">
<rect opacity="0.4" width="3.1251" height="31.798" transform="matrix(0.764532 -0.644585 0.767411 0.641155 19.1146 32.8751)" fill="#D9D9D9"/>
<rect opacity="0.4" width="3.1251" height="31.798" transform="matrix(0.764532 -0.644585 0.767411 0.641155 40.8215 33.5033)" fill="#D9D9D9"/>
<rect opacity="0.4" width="2.07215" height="31.798" transform="matrix(0.764532 -0.644585 0.767411 0.641155 16.869 35.5175)" fill="#D9D9D9"/>
<rect opacity="0.4" width="2.07215" height="31.798" transform="matrix(0.764532 -0.644585 0.767411 0.641155 39.2042 36.1456)" fill="#D9D9D9"/>
</g>
<path d="M61.161 21.5744C61.3084 21.0028 62.1202 21.0028 62.2676 21.5744L63.6466 26.922C63.6824 27.061 63.7692 27.1813 63.8897 27.2592L67.8291 29.8058C68.1774 30.031 68.1774 30.5405 67.8291 30.7656L63.8897 33.3122C63.7692 33.3901 63.6824 33.5105 63.6466 33.6494L62.2676 38.997C62.1202 39.5687 61.3084 39.5687 61.161 38.997L59.7821 33.6494C59.7462 33.5105 59.6594 33.3901 59.5389 33.3122L55.5995 30.7656C55.2513 30.5405 55.2513 30.031 55.5995 29.8058L59.5389 27.2592C59.6594 27.1813 59.7462 27.061 59.7821 26.922L61.161 21.5744Z" fill="#FFEE8C"/>
</svg>
