<svg width="4716" height="2880" viewBox="0 0 4716 2880" fill="none" xmlns="http://www.w3.org/2000/svg">
<rect width="4716" height="2880" fill="#E5E7EB"/>
<g clip-path="url(#clip0_3405_2821)">
<path d="M2350.69 812.48C2350.69 812.48 2335 613.715 2711.01 664.514C2711.01 664.514 2695.74 826.056 2350.69 812.48Z" fill="#7E7E7E" stroke="#575757" stroke-width="42" stroke-miterlimit="10"/>
<ellipse cx="2354.52" cy="1290" rx="549" ry="462" fill="#575757"/>
<ellipse cx="2355.12" cy="1285.2" rx="507.6" ry="421.2" fill="#B3B3B3"/>
<circle cx="2560.32" cy="1246.56" r="97.2" fill="#F0F0F0"/>
<circle cx="2544.12" cy="1241.15" r="81" fill="#575757"/>
<circle cx="2171.52" cy="1246.56" r="97.2" fill="#F0F0F0"/>
<circle cx="2155.32" cy="1241.15" r="81" fill="#575757"/>
<path d="M2484.72 1160.15H2635.92" stroke="#575757" stroke-width="32.4" stroke-linecap="round"/>
<path d="M2095.92 1160.15H2247.12" stroke="#575757" stroke-width="32.4" stroke-linecap="round"/>
<path d="M2306.16 1205.67C2326.96 1147.11 2409.78 1147.11 2430.59 1205.67L2451.42 1264.3C2466.69 1307.28 2434.82 1352.43 2389.2 1352.43H2347.54C2301.93 1352.43 2270.05 1307.28 2285.32 1264.3L2306.16 1205.67Z" fill="#575757"/>
<path d="M2440.91 1421.95C2419.36 1442.12 2359.53 1470.97 2292.66 1424.97" stroke="#575757" stroke-width="32.4" stroke-linecap="round"/>
<rect x="2021.52" y="1434" width="636" height="366" rx="72" fill="#D9D9D9"/>
<path d="M2021.52 1524H2657.52V1728C2657.52 1767.76 2625.28 1800 2585.52 1800H2093.52C2053.75 1800 2021.52 1767.76 2021.52 1728V1524Z" fill="#2F2F2F"/>
<g filter="url(#filter0_dd_3405_2821)">
<circle cx="2339.52" cy="1626" r="144" fill="#D9D9D9"/>
<circle cx="2339.52" cy="1626" r="141" stroke="#BABABA" stroke-width="6"/>
</g>
<g filter="url(#filter1_dd_3405_2821)">
<circle cx="2339.52" cy="1626" r="115.2" fill="black"/>
</g>
<g filter="url(#filter2_dd_3405_2821)">
<circle cx="2339.52" cy="1626" r="92.16" fill="#1F1D1D"/>
</g>
<g opacity="0.7" filter="url(#filter3_dd_3405_2821)">
<circle cx="2339.52" cy="1626" r="55.296" fill="#818080"/>
</g>
<g opacity="0.7" filter="url(#filter4_dd_3405_2821)">
<circle cx="2307.6" cy="1594.08" r="27.648" fill="#818080"/>
</g>
<rect opacity="0.7" x="2057.52" y="1716" width="60" height="18" fill="#D9D9D9"/>
<path d="M2087.52 1422C2087.52 1415.37 2092.89 1410 2099.52 1410H2159.52C2166.15 1410 2171.52 1415.37 2171.52 1422V1434H2087.52V1422Z" fill="#9F9F9F"/>
<rect x="2501.52" y="1464" width="108" height="42" fill="#B4B4B4"/>
<rect x="2507.52" y="1470" width="48" height="30" fill="#EDEDED"/>
<rect x="2555.52" y="1470" width="48" height="30" fill="#707070"/>
<rect opacity="0.7" x="2057.52" y="1746" width="84" height="18" fill="#D9D9D9"/>
<circle cx="2084.52" cy="1485" r="9" fill="#575757"/>
<path d="M2149.89 1200.88C2151.7 1194.09 2161.34 1194.09 2163.15 1200.88L2168.87 1222.38C2169.32 1224.06 2170.38 1225.51 2171.86 1226.43L2192.24 1239.19C2196.53 1241.87 2196.53 1248.12 2192.24 1250.81L2171.86 1263.57C2170.38 1264.49 2169.32 1265.94 2168.87 1267.62L2163.15 1289.11C2161.34 1295.9 2151.7 1295.9 2149.89 1289.11L2144.17 1267.62C2143.72 1265.94 2142.65 1264.49 2141.18 1263.57L2120.8 1250.81C2116.51 1248.12 2116.51 1241.87 2120.8 1239.19L2141.18 1226.43C2142.65 1225.51 2143.72 1224.06 2144.17 1222.38L2149.89 1200.88Z" fill="#ECECEC"/>
<path d="M2539.89 1206.88C2541.7 1200.09 2551.34 1200.09 2553.15 1206.88L2558.87 1228.38C2559.32 1230.06 2560.38 1231.51 2561.86 1232.43L2582.24 1245.19C2586.53 1247.87 2586.53 1254.12 2582.24 1256.81L2561.86 1269.57C2560.38 1270.49 2559.32 1271.94 2558.87 1273.62L2553.15 1295.11C2551.34 1301.9 2541.7 1301.9 2539.89 1295.11L2534.17 1273.62C2533.72 1271.94 2532.65 1270.49 2531.18 1269.57L2510.8 1256.81C2506.51 1254.12 2506.51 1247.87 2510.8 1245.19L2531.18 1232.43C2532.65 1231.51 2533.72 1230.06 2534.17 1228.38L2539.89 1206.88Z" fill="#ECECEC"/>
<path d="M2680.9 1714.58C2634.16 1687.39 2619.77 1611.65 2660.58 1541.48C2701.4 1471.3 2774.36 1446.37 2821.1 1473.56C2867.84 1500.75 2882.23 1576.49 2841.42 1646.66C2800.6 1716.83 2727.64 1741.76 2680.9 1714.58Z" fill="#B3B3B3" stroke="#575757" stroke-width="33.6" stroke-linejoin="round"/>
<path d="M2029.1 1714.58C2075.84 1687.39 2090.23 1611.65 2049.42 1541.48C2008.6 1471.3 1935.64 1446.37 1888.9 1473.56C1842.16 1500.75 1827.77 1576.49 1868.58 1646.66C1909.4 1716.83 1982.36 1741.76 2029.1 1714.58Z" fill="#B3B3B3" stroke="#575757" stroke-width="33.6" stroke-linejoin="round"/>
<path d="M1922.8 2002.31V2172H1888.81L1819.91 2072.39H1818.73V2172H1778.89V2002.31H1813.34L1881.55 2101.92H1882.95V2002.31H1922.8ZM2107.72 2087.15C2107.72 2143.17 2072.56 2174.34 2027.09 2174.34C1981.39 2174.34 1946.47 2142.94 1946.47 2087.15C1946.47 2031.14 1981.39 1999.97 2027.09 1999.97C2072.56 1999.97 2107.72 2031.14 2107.72 2087.15ZM2066.94 2087.15C2066.94 2053.4 2051.94 2035.12 2027.09 2035.12C2002.25 2035.12 1987.25 2053.4 1987.25 2087.15C1987.25 2120.9 2002.25 2139.19 2027.09 2139.19C2051.94 2139.19 2066.94 2120.9 2066.94 2087.15ZM2224.91 2002.31V2172H2185.06V2002.31H2224.91ZM2250.69 2002.31H2300.14L2343.97 2109.19H2345.84L2389.67 2002.31H2439.12V2172H2400.22V2066.53H2398.81L2357.56 2171.06H2332.25L2291 2066.06H2289.59V2172H2250.69V2002.31ZM2500.06 2172H2456.94L2514.59 2002.31H2567.56L2624.98 2172H2582.09L2570.61 2135.67H2511.55L2500.06 2172ZM2521.16 2105.2H2561L2541.78 2044.26H2540.38L2521.16 2105.2ZM2746.62 2057.62C2742.64 2043.33 2731.16 2035.12 2714.52 2035.12C2689.67 2035.12 2673.73 2053.87 2673.73 2086.92C2673.73 2120.2 2688.73 2139.19 2714.52 2139.19C2737.13 2139.19 2749.91 2127.35 2750.38 2108.95H2716.16V2079.65H2788.81V2101.92C2788.81 2147.15 2757.64 2174.34 2714.28 2174.34C2665.77 2174.34 2632.95 2141.06 2632.95 2087.39C2632.95 2031.84 2668.58 1999.97 2713.58 1999.97C2752.72 1999.97 2782.95 2023.87 2787.17 2057.62H2746.62ZM2812.95 2172V2002.31H2930.38V2034.89H2852.8V2070.75H2924.28V2103.33H2852.8V2139.42H2930.61V2172H2812.95Z" fill="#575757"/>
</g>
<defs>
<filter id="filter0_dd_3405_2821" x="2171.52" y="1482" width="336" height="336" filterUnits="userSpaceOnUse" color-interpolation-filters="sRGB">
<feFlood flood-opacity="0" result="BackgroundImageFix"/>
<feColorMatrix in="SourceAlpha" type="matrix" values="0 0 0 0 0 0 0 0 0 0 0 0 0 0 0 0 0 0 127 0" result="hardAlpha"/>
<feOffset dy="24"/>
<feGaussianBlur stdDeviation="12"/>
<feComposite in2="hardAlpha" operator="out"/>
<feColorMatrix type="matrix" values="0 0 0 0 0 0 0 0 0 0 0 0 0 0 0 0 0 0 0.25 0"/>
<feBlend mode="normal" in2="BackgroundImageFix" result="effect1_dropShadow_3405_2821"/>
<feColorMatrix in="SourceAlpha" type="matrix" values="0 0 0 0 0 0 0 0 0 0 0 0 0 0 0 0 0 0 127 0" result="hardAlpha"/>
<feOffset dy="24"/>
<feGaussianBlur stdDeviation="12"/>
<feComposite in2="hardAlpha" operator="out"/>
<feColorMatrix type="matrix" values="0 0 0 0 0 0 0 0 0 0 0 0 0 0 0 0 0 0 0.25 0"/>
<feBlend mode="normal" in2="effect1_dropShadow_3405_2821" result="effect2_dropShadow_3405_2821"/>
<feBlend mode="normal" in="SourceGraphic" in2="effect2_dropShadow_3405_2821" result="shape"/>
</filter>
<filter id="filter1_dd_3405_2821" x="2205.12" y="1510.8" width="268.8" height="268.8" filterUnits="userSpaceOnUse" color-interpolation-filters="sRGB">
<feFlood flood-opacity="0" result="BackgroundImageFix"/>
<feColorMatrix in="SourceAlpha" type="matrix" values="0 0 0 0 0 0 0 0 0 0 0 0 0 0 0 0 0 0 127 0" result="hardAlpha"/>
<feOffset dy="19.2"/>
<feGaussianBlur stdDeviation="9.6"/>
<feComposite in2="hardAlpha" operator="out"/>
<feColorMatrix type="matrix" values="0 0 0 0 0 0 0 0 0 0 0 0 0 0 0 0 0 0 0.25 0"/>
<feBlend mode="normal" in2="BackgroundImageFix" result="effect1_dropShadow_3405_2821"/>
<feColorMatrix in="SourceAlpha" type="matrix" values="0 0 0 0 0 0 0 0 0 0 0 0 0 0 0 0 0 0 127 0" result="hardAlpha"/>
<feOffset dy="19.2"/>
<feGaussianBlur stdDeviation="9.6"/>
<feComposite in2="hardAlpha" operator="out"/>
<feColorMatrix type="matrix" values="0 0 0 0 0 0 0 0 0 0 0 0 0 0 0 0 0 0 0.25 0"/>
<feBlend mode="normal" in2="effect1_dropShadow_3405_2821" result="effect2_dropShadow_3405_2821"/>
<feBlend mode="normal" in="SourceGraphic" in2="effect2_dropShadow_3405_2821" result="shape"/>
</filter>
<filter id="filter2_dd_3405_2821" x="2232" y="1533.84" width="215.04" height="215.04" filterUnits="userSpaceOnUse" color-interpolation-filters="sRGB">
<feFlood flood-opacity="0" result="BackgroundImageFix"/>
<feColorMatrix in="SourceAlpha" type="matrix" values="0 0 0 0 0 0 0 0 0 0 0 0 0 0 0 0 0 0 127 0" result="hardAlpha"/>
<feOffset dy="15.36"/>
<feGaussianBlur stdDeviation="7.68"/>
<feComposite in2="hardAlpha" operator="out"/>
<feColorMatrix type="matrix" values="0 0 0 0 0 0 0 0 0 0 0 0 0 0 0 0 0 0 0.25 0"/>
<feBlend mode="normal" in2="BackgroundImageFix" result="effect1_dropShadow_3405_2821"/>
<feColorMatrix in="SourceAlpha" type="matrix" values="0 0 0 0 0 0 0 0 0 0 0 0 0 0 0 0 0 0 127 0" result="hardAlpha"/>
<feOffset dy="15.36"/>
<feGaussianBlur stdDeviation="7.68"/>
<feComposite in2="hardAlpha" operator="out"/>
<feColorMatrix type="matrix" values="0 0 0 0 0 0 0 0 0 0 0 0 0 0 0 0 0 0 0.25 0"/>
<feBlend mode="normal" in2="effect1_dropShadow_3405_2821" result="effect2_dropShadow_3405_2821"/>
<feBlend mode="normal" in="SourceGraphic" in2="effect2_dropShadow_3405_2821" result="shape"/>
</filter>
<filter id="filter3_dd_3405_2821" x="2275.01" y="1570.7" width="129.024" height="129.024" filterUnits="userSpaceOnUse" color-interpolation-filters="sRGB">
<feFlood flood-opacity="0" result="BackgroundImageFix"/>
<feColorMatrix in="SourceAlpha" type="matrix" values="0 0 0 0 0 0 0 0 0 0 0 0 0 0 0 0 0 0 127 0" result="hardAlpha"/>
<feOffset dy="9.216"/>
<feGaussianBlur stdDeviation="4.608"/>
<feComposite in2="hardAlpha" operator="out"/>
<feColorMatrix type="matrix" values="0 0 0 0 0 0 0 0 0 0 0 0 0 0 0 0 0 0 0.25 0"/>
<feBlend mode="normal" in2="BackgroundImageFix" result="effect1_dropShadow_3405_2821"/>
<feColorMatrix in="SourceAlpha" type="matrix" values="0 0 0 0 0 0 0 0 0 0 0 0 0 0 0 0 0 0 127 0" result="hardAlpha"/>
<feOffset dy="9.216"/>
<feGaussianBlur stdDeviation="4.608"/>
<feComposite in2="hardAlpha" operator="out"/>
<feColorMatrix type="matrix" values="0 0 0 0 0 0 0 0 0 0 0 0 0 0 0 0 0 0 0.25 0"/>
<feBlend mode="normal" in2="effect1_dropShadow_3405_2821" result="effect2_dropShadow_3405_2821"/>
<feBlend mode="normal" in="SourceGraphic" in2="effect2_dropShadow_3405_2821" result="shape"/>
</filter>
<filter id="filter4_dd_3405_2821" x="2275.34" y="1566.43" width="64.512" height="64.5119" filterUnits="userSpaceOnUse" color-interpolation-filters="sRGB">
<feFlood flood-opacity="0" result="BackgroundImageFix"/>
<feColorMatrix in="SourceAlpha" type="matrix" values="0 0 0 0 0 0 0 0 0 0 0 0 0 0 0 0 0 0 127 0" result="hardAlpha"/>
<feOffset dy="4.608"/>
<feGaussianBlur stdDeviation="2.304"/>
<feComposite in2="hardAlpha" operator="out"/>
<feColorMatrix type="matrix" values="0 0 0 0 0 0 0 0 0 0 0 0 0 0 0 0 0 0 0.25 0"/>
<feBlend mode="normal" in2="BackgroundImageFix" result="effect1_dropShadow_3405_2821"/>
<feColorMatrix in="SourceAlpha" type="matrix" values="0 0 0 0 0 0 0 0 0 0 0 0 0 0 0 0 0 0 127 0" result="hardAlpha"/>
<feOffset dy="4.608"/>
<feGaussianBlur stdDeviation="2.304"/>
<feComposite in2="hardAlpha" operator="out"/>
<feColorMatrix type="matrix" values="0 0 0 0 0 0 0 0 0 0 0 0 0 0 0 0 0 0 0.25 0"/>
<feBlend mode="normal" in2="effect1_dropShadow_3405_2821" result="effect2_dropShadow_3405_2821"/>
<feBlend mode="normal" in="SourceGraphic" in2="effect2_dropShadow_3405_2821" result="shape"/>
</filter>
<clipPath id="clip0_3405_2821">
<rect width="1878" height="1594" fill="white" transform="translate(1416 636)"/>
</clipPath>
</defs>
</svg>
