<svg width="16" height="18" viewBox="0 0 16 18" fill="none" xmlns="http://www.w3.org/2000/svg">
<path d="M7.99984 11.25L9.99984 9M9.99984 9L7.99984 6.75M9.99984 9H2.6665M2.6665 5.43602V5.40015C2.6665 4.56007 2.6665 4.13972 2.81183 3.81885C2.93966 3.5366 3.14349 3.3073 3.39437 3.16349C3.67958 3 4.05323 3 4.79997 3H11.2C11.9467 3 12.3196 3 12.6048 3.16349C12.8556 3.3073 13.0602 3.5366 13.188 3.81885C13.3332 4.1394 13.3332 4.55925 13.3332 5.39768V12.6027C13.3332 13.4411 13.3332 13.8604 13.188 14.1809C13.0602 14.4632 12.8556 14.6929 12.6048 14.8367C12.3198 15 11.9472 15 11.2019 15H4.79778C4.0525 15 3.67931 15 3.39437 14.8367C3.14349 14.6929 2.93966 14.4629 2.81183 14.1807C2.6665 13.8598 2.6665 13.4401 2.6665 12.6V12.5625" stroke="#5D5D5D" stroke-width="1.5" stroke-linecap="round" stroke-linejoin="round"/>
</svg>
