<svg width="205" height="195" viewBox="0 0 205 195" fill="none" xmlns="http://www.w3.org/2000/svg">
<path d="M95.8618 31.4128C95.8618 31.4128 93.2461 -1.71469 155.915 6.75181C155.915 6.75181 153.371 33.6754 95.8618 31.4128Z" fill="#009245" stroke="#006259" stroke-width="9" stroke-miterlimit="10"/>
<ellipse cx="96.5" cy="111" rx="91.5" ry="77" fill="#006259"/>
<ellipse cx="96.6" cy="110.199" rx="84.6" ry="70.2" fill="#FF9D1F"/>
<circle cx="130.8" cy="103.759" r="16.2" fill="#FFEED9"/>
<circle cx="128.1" cy="102.859" r="13.5" fill="#006259"/>
<circle cx="66" cy="103.759" r="16.2" fill="#FFEED9"/>
<circle cx="63.3" cy="102.859" r="13.5" fill="#006259"/>
<path d="M118.2 89.3589H143.4" stroke="#006259" stroke-width="5.4" stroke-linecap="round"/>
<path d="M53.4001 89.3589H78.6001" stroke="#006259" stroke-width="5.4" stroke-linecap="round"/>
<path d="M88.4394 96.9442C91.9071 87.1839 105.71 87.1839 109.178 96.9442L112.65 106.717C115.195 113.88 109.883 121.405 102.281 121.405H95.3366C87.7344 121.405 82.4222 113.88 84.9673 106.717L88.4394 96.9442Z" fill="#006259"/>
<path d="M110.899 132.991C107.306 136.353 97.3356 141.161 86.1907 133.494" stroke="#006259" stroke-width="5.4" stroke-linecap="round"/>
<rect width="68.0722" height="7" transform="matrix(-0.8968 -0.442436 -0.442436 0.8968 204.144 97.1169)" fill="#4E0000"/>
<path d="M134.28 66.655L143.092 67.0096L144 67.9992L142.5 68.4992L143 69.4992L142 69.9992L142.5 70.9992L141.5 71.4992L142 72.4992L141 72.4994L141 73.4994L140 73.4993L134.28 66.655Z" fill="#FFCEAA"/>
<path d="M134.297 66.6595L137.638 66.7795L136.466 69.204L134.297 66.6595Z" fill="black"/>
<path d="M62.3956 96.147C62.697 95.0153 64.303 95.0153 64.6044 96.147L65.5584 99.7299C65.6329 100.01 65.8109 100.251 66.0563 100.405L69.4526 102.531C70.1679 102.978 70.1679 104.02 69.4526 104.468L66.0563 106.594C65.8109 106.748 65.6329 106.989 65.5584 107.269L64.6044 110.852C64.303 111.984 62.697 111.984 62.3956 110.852L61.4416 107.269C61.3671 106.989 61.1891 106.748 60.9437 106.594L57.5474 104.468C56.8321 104.02 56.8321 102.978 57.5474 102.531L60.9437 100.405C61.1891 100.251 61.3671 100.01 61.4416 99.7299L62.3956 96.147Z" fill="#FFEE8C"/>
<path d="M127.396 97.147C127.697 96.0153 129.303 96.0153 129.604 97.147L130.558 100.73C130.633 101.01 130.811 101.251 131.056 101.405L134.453 103.531C135.168 103.978 135.168 105.02 134.453 105.468L131.056 107.594C130.811 107.748 130.633 107.989 130.558 108.269L129.604 111.852C129.303 112.984 127.697 112.984 127.396 111.852L126.442 108.269C126.367 107.989 126.189 107.748 125.944 107.594L122.547 105.468C121.832 105.02 121.832 103.978 122.547 103.531L125.944 101.405C126.189 101.251 126.367 101.01 126.442 100.73L127.396 97.147Z" fill="#FFEE8C"/>
<path d="M150.897 181.762C143.107 177.231 140.708 164.608 147.511 152.913C154.314 141.217 166.472 137.062 174.262 141.593C182.053 146.124 184.452 158.748 177.649 170.443C170.846 182.139 158.687 186.294 150.897 181.762Z" fill="#FF9D1F" stroke="#006259" stroke-width="5.6" stroke-linejoin="round"/>
<path d="M42.2632 181.762C50.053 177.231 52.4522 164.608 45.6493 152.913C38.8462 141.217 26.6878 137.062 18.8977 141.593C11.1076 146.124 8.70767 158.748 15.5108 170.443C22.314 182.139 34.4732 186.294 42.2632 181.762Z" fill="#FF9D1F" stroke="#006259" stroke-width="5.6" stroke-linejoin="round"/>
</svg>
