<svg width="18" height="18" viewBox="0 0 18 18" fill="none" xmlns="http://www.w3.org/2000/svg">
<path d="M3.375 7.51639C3.375 11.2073 6.44468 14.2595 7.8034 15.4297C7.99786 15.5972 8.09625 15.6819 8.24133 15.7249C8.35429 15.7584 8.52055 15.7584 8.63352 15.7249C8.77887 15.6819 8.87657 15.598 9.07176 15.4298C10.4305 14.2596 13.5 11.2076 13.5 7.51673C13.5 6.11995 12.9667 4.78021 12.0172 3.79254C11.0678 2.80487 9.78025 2.25 8.43759 2.25C7.09492 2.25 5.80719 2.80495 4.85778 3.79262C3.90837 4.7803 3.375 6.11961 3.375 7.51639Z" fill="#B4B4B4"/>
<path d="M6.99109 6.81435C6.99109 7.65463 7.63868 8.3358 8.43753 8.3358C9.23637 8.3358 9.88397 7.65463 9.88397 6.81435C9.88397 5.97408 9.23637 5.2929 8.43753 5.2929C7.63868 5.2929 6.99109 5.97408 6.99109 6.81435Z" fill="#B4B4B4"/>
<circle cx="8.5" cy="7.5" r="1.5" fill="#FFFFFD"/>
</svg>
