<svg width="115" height="29" viewBox="0 0 115 29" fill="none" xmlns="http://www.w3.org/2000/svg">
<path d="M14.4501 6.79821C14.4501 6.79821 14.1539 3.04572 21.2526 4.00476C21.2526 4.00476 20.9644 7.05451 14.4501 6.79821Z" fill="#009245" stroke="#006259" stroke-width="1.01947" stroke-miterlimit="10"/>
<ellipse cx="14.2727" cy="15.7629" rx="10.8064" ry="9.17522" fill="#006259"/>
<ellipse cx="14.2725" cy="15.7631" rx="9.58301" ry="7.95186" fill="#FF9D1F"/>
<circle cx="18.1466" cy="14.9478" r="1.83504" fill="#FFEED9"/>
<circle cx="17.8407" cy="14.8459" r="1.5292" fill="#006259"/>
<circle cx="10.8062" cy="14.9478" r="1.83504" fill="#FFEED9"/>
<circle cx="10.5004" cy="14.8459" r="1.5292" fill="#006259"/>
<path d="M16.7192 13.3162H19.5738" stroke="#006259" stroke-width="0.611681" stroke-linecap="round"/>
<path d="M9.37891 13.3162H12.2334" stroke="#006259" stroke-width="0.611681" stroke-linecap="round"/>
<path d="M13.3482 14.1753C13.741 13.0697 15.3046 13.0697 15.6974 14.1753L16.0907 15.2823C16.379 16.0937 15.7772 16.9461 14.9161 16.9461H14.1295C13.2684 16.9461 12.6666 16.0937 12.9549 15.2823L13.3482 14.1753Z" fill="#006259"/>
<path d="M15.8906 18.2482C15.4837 18.629 14.3543 19.1737 13.0918 18.3052" stroke="#006259" stroke-width="0.611681" stroke-linecap="round"/>
<path d="M41.518 8.41299C41.5521 8.74295 41.4782 8.9705 41.2961 9.09566C41.1141 9.20944 40.824 9.28339 40.4257 9.31753C40.585 9.93193 40.6704 10.2619 40.6817 10.3074C40.7614 10.5577 40.7102 10.8194 40.5281 11.0925C40.3461 11.3655 40.1413 11.5589 39.9137 11.6727C39.6634 11.7979 39.4017 11.906 39.1287 11.997V12.0823C39.1401 12.1165 39.1514 12.2757 39.1628 12.5602C39.1742 12.8446 39.1856 12.9925 39.1969 13.0039C39.3107 13.0039 39.982 13.0267 41.2108 13.0722C42.451 13.1063 43.128 13.1234 43.2417 13.1234L44.6924 12.9869C45.0451 13.2258 45.2044 13.459 45.1703 13.6866C45.1589 13.7549 45.0849 14.2043 44.9484 15.0349C44.7891 15.0462 44.7038 15.0519 44.6924 15.0519C44.6355 15.0519 42.6387 15.0292 38.702 14.9837C38.6337 14.9837 38.0592 15.0007 36.9783 15.0349C35.9088 15.069 35.3456 15.0861 35.2887 15.0861C35.1521 15.0861 34.4581 15.0747 33.2065 15.0519C31.955 15.0178 31.2666 15.0007 31.1415 15.0007C31.1187 15.0007 30.9537 15.0121 30.6465 15.0349C30.3393 15.0576 30.1744 15.069 30.1516 15.069C29.9582 15.069 29.833 15.0349 29.7761 14.9666C29.7192 14.8983 29.6908 14.7618 29.6908 14.557C29.6794 14.4318 29.6737 14.3294 29.6737 14.2498C29.651 14.045 29.651 13.7549 29.6737 13.3794C29.6851 13.1632 29.7875 13.0551 29.9809 13.0551C30.072 13.0551 30.9196 13.0608 32.5239 13.0722C34.1281 13.0836 34.9758 13.0893 35.0668 13.0893H35.8007C35.9486 13.0893 36.0453 13.0836 36.0908 13.0722C36.0453 12.6853 36.0396 12.4237 36.0737 12.2871C35.5504 12.2302 35.0042 12.1278 34.4353 11.9799C34.1395 11.9003 33.9063 11.7751 33.7356 11.6045C33.5649 11.4338 33.417 11.2005 33.2919 10.9047C33.0416 10.3017 33.2179 9.78402 33.8209 9.35166C33.8323 9.35166 33.9859 9.24926 34.2817 9.04446C33.5763 8.98757 33.2065 8.95913 33.1724 8.95913C32.8083 8.95913 32.558 8.91362 32.4215 8.82259C32.2963 8.72019 32.211 8.52108 32.1655 8.22526C32.12 7.91806 32.1029 7.69619 32.1143 7.55966C32.1143 7.52553 32.1484 7.48002 32.2167 7.42313C32.2849 7.36624 32.3361 7.33779 32.3703 7.33779C33.1667 7.26953 33.6503 7.23539 33.8209 7.23539C34.003 7.23539 34.4467 7.26953 35.1521 7.33779C36.233 7.45157 37.0921 7.50846 37.7292 7.50846C37.8771 7.50846 38.2867 7.50277 38.958 7.49139C39.6407 7.46864 40.056 7.45726 40.2039 7.45726C40.4656 7.45726 40.7386 7.4857 41.0231 7.54259C41.3075 7.59948 41.4896 7.67913 41.5692 7.78153C41.6033 7.83842 41.6204 7.92375 41.6204 8.03753C41.6204 8.1513 41.5976 8.24802 41.5521 8.32766C41.5294 8.36179 41.518 8.39024 41.518 8.41299ZM35.4252 10.3757C35.3797 10.5349 35.4024 10.643 35.4935 10.6999C35.5959 10.7568 35.7438 10.8023 35.9372 10.8365C35.9486 10.8365 35.96 10.8365 35.9713 10.8365C36.4151 10.9161 36.8645 10.9559 37.3196 10.9559H37.422C37.6154 10.9559 37.8601 10.9218 38.1559 10.8535C38.4517 10.7739 38.6281 10.6715 38.6849 10.5463C38.8784 10.114 38.7817 9.84091 38.3948 9.72713C38.2014 9.67024 38.008 9.64179 37.8145 9.64179C37.3708 9.64179 36.8531 9.65886 36.2615 9.69299C36.0567 9.70437 35.8689 9.77833 35.6983 9.91486C35.5276 10.04 35.4366 10.1936 35.4252 10.3757ZM34.1452 5.47753H37.1831C38.3208 5.60268 39.2709 5.72215 40.0332 5.83593C40.3404 5.91557 40.5338 6.12606 40.6135 6.46739C40.6931 6.79735 40.6192 7.09317 40.3916 7.35486C40.3461 7.42313 40.2551 7.45157 40.1185 7.44019C39.9251 7.42882 39.4473 7.40606 38.6849 7.37193C37.9226 7.33779 37.4675 7.31504 37.3196 7.30366H36.4321C35.6471 7.2809 34.9985 7.25815 34.4865 7.23539C34.2704 7.22402 34.1224 7.18419 34.0428 7.11593C33.9745 7.03628 33.9461 6.88837 33.9575 6.67219C33.9688 6.6153 34.0314 6.21708 34.1452 5.47753ZM33.5991 16.1954C33.5991 16.2295 33.5934 16.3035 33.582 16.4173C33.582 16.5197 33.582 16.5879 33.582 16.6221V18.3287H36.6369H38.3948H40.2721C41.6602 18.3287 42.5989 18.3344 43.0881 18.3458C43.1792 18.3458 43.2531 18.3742 43.31 18.4311C43.3669 18.4766 43.4067 18.5278 43.4295 18.5847C43.4522 18.6416 43.475 18.7269 43.4977 18.8407C43.5091 18.8862 43.5148 18.9147 43.5148 18.9261C43.5376 19.0398 43.5489 19.1593 43.5489 19.2845C43.5489 19.6713 43.4409 20.0695 43.2247 20.4791C43.1678 20.5929 43.0199 20.6725 42.7809 20.7181C42.7241 20.7181 41.9162 20.7636 40.3575 20.8546C38.7987 20.957 37.9966 21.0139 37.9511 21.0253C37.8828 21.0366 37.8202 21.0423 37.7633 21.0423C36.2501 21.0423 34.953 21.0708 33.8721 21.1277C33.8153 21.1277 33.6389 21.1333 33.3431 21.1447C33.0472 21.1675 32.8652 21.1789 32.7969 21.1789C32.0005 21.1789 31.5738 20.9342 31.5169 20.445C31.5056 20.2288 31.46 19.4381 31.3804 18.0727C31.3121 16.7074 31.278 16.0133 31.278 15.9906H31.2951C31.4316 15.9906 31.608 15.9451 31.8241 15.8541C32.0403 15.7517 32.211 15.7005 32.3361 15.7005C32.5637 15.7005 32.9164 15.7801 33.3943 15.9394C33.5308 15.9849 33.5991 16.0702 33.5991 16.1954ZM64.1059 12.7821C64.1287 12.7821 64.9536 12.7934 66.5806 12.8162C68.2076 12.8276 69.078 12.8333 69.1918 12.8333H69.4649C69.5445 12.8333 69.6754 12.8333 69.8574 12.8333C70.0395 12.8219 70.1589 12.8162 70.2158 12.8162C70.1589 12.3042 70.1817 11.9742 70.2841 11.8263C69.1804 11.7694 68.2361 11.5703 67.451 11.229C66.4953 10.8308 66.0686 10.1652 66.171 9.23219C66.262 8.4585 66.6659 7.71895 67.3827 7.01353C67.9516 6.44464 68.8619 6.04073 70.1134 5.80179C70.2386 5.77904 70.4547 5.76197 70.7619 5.75059C71.0691 5.72784 71.2796 5.71077 71.3934 5.69939C72.4857 5.76766 73.0375 5.80179 73.0489 5.80179C74.619 5.9497 75.8364 6.55842 76.7011 7.62793C76.8149 7.77584 76.8946 7.9977 76.9401 8.29353C77.0083 8.82828 76.9003 9.44837 76.6158 10.1538C76.32 10.9275 75.7283 11.4053 74.8409 11.5874C74.3403 11.6898 73.8112 11.7524 73.2537 11.7751V11.8093C73.2651 11.8434 73.2764 12.0027 73.2878 12.2871C73.2992 12.5716 73.3106 12.7195 73.3219 12.7309C73.4357 12.7309 74.107 12.7536 75.3358 12.7991C76.576 12.8446 77.253 12.8674 77.3667 12.8674L78.8174 12.7138C79.1701 12.9527 79.3294 13.1917 79.2953 13.4306C79.2839 13.4875 79.2099 13.9312 79.0734 14.7618C78.9141 14.7845 78.8288 14.7959 78.8174 14.7959C78.7605 14.7959 76.7637 14.7732 72.827 14.7277C72.7815 14.7277 72.2069 14.7447 71.1033 14.7789C70.011 14.8016 69.4478 14.813 69.4137 14.813C69.2885 14.813 68.8277 14.8073 68.0313 14.7959C67.2348 14.7732 66.5692 14.7618 66.0345 14.7618C65.4997 14.7504 65.0787 14.7561 64.7715 14.7789C64.5098 14.8016 64.3449 14.8073 64.2766 14.7959C64.0832 14.7959 63.958 14.7618 63.9011 14.6935C63.8442 14.6253 63.8158 14.4887 63.8158 14.2839C63.8044 14.1588 63.7987 14.0621 63.7987 13.9938C63.776 13.7776 63.776 13.4818 63.7987 13.1063C63.8101 12.9015 63.9125 12.7934 64.1059 12.7821ZM71.4275 9.94899C72.1102 9.90348 72.4743 9.88073 72.5198 9.88073C72.7132 9.85797 72.918 9.78402 73.1342 9.65886C73.3618 9.52233 73.4869 9.3801 73.5097 9.23219C73.5666 8.8681 73.5154 8.59504 73.3561 8.41299C73.1968 8.21957 72.9408 8.08873 72.5881 8.02046C71.7575 7.83842 71.0123 7.82704 70.3523 7.98633C70.0224 8.06597 69.829 8.13424 69.7721 8.19113C69.59 8.39593 69.3966 8.68606 69.1918 9.06153C69.0325 9.35735 69.1463 9.55646 69.5331 9.65886C70.3637 9.89779 70.9952 9.9945 71.4275 9.94899ZM72.827 18.9773C72.6791 18.9773 72.4629 18.9716 72.1785 18.9602C71.9054 18.9602 71.7006 18.9602 71.5641 18.9602C71.3024 18.9602 71.0521 18.9659 70.8131 18.9773C70.4263 18.9773 70.0395 19.0114 69.6526 19.0797C69.5957 19.091 69.5274 19.1252 69.4478 19.1821C69.3682 19.2389 69.3283 19.2901 69.3283 19.3357C69.3852 19.6429 69.6071 19.7965 69.9939 19.7965C70.0736 19.7965 70.2272 19.7851 70.4547 19.7623C70.6937 19.7396 70.8473 19.7282 70.9155 19.7282C71.0293 19.7282 71.1829 19.7396 71.3763 19.7623C71.5698 19.7965 71.7234 19.8135 71.8371 19.8135C72.1557 19.8135 72.5824 19.7566 73.1171 19.6429C73.4016 19.586 73.5438 19.4381 73.5438 19.1991C73.5438 19.1536 73.5381 19.0967 73.5267 19.0285L73.4243 18.9773H72.827ZM73.9363 16.7245V16.5367C73.9363 16.0247 74.0103 15.6379 74.1582 15.3762C74.2037 15.2965 74.2606 15.251 74.3289 15.2397C74.4085 15.2169 74.528 15.2055 74.6873 15.2055C74.6873 15.2055 74.7385 15.1998 74.8409 15.1885C74.9547 15.1771 75.0741 15.1657 75.1993 15.1543C75.3244 15.1316 75.4382 15.1145 75.5406 15.1031C75.6544 15.0917 75.7113 15.0861 75.7113 15.0861C76.2574 15.234 76.5874 15.3705 76.7011 15.4957C76.8263 15.6208 76.8889 15.9223 76.8889 16.4002C76.8889 17.208 76.8547 18.2149 76.7865 19.421C76.7637 19.8875 76.5532 20.28 76.155 20.5986C75.7682 20.9285 75.3187 21.1163 74.8067 21.1618C74.6816 21.1732 74.2151 21.2301 73.4073 21.3325C72.6108 21.4462 72.1159 21.5088 71.9225 21.5202C71.7177 21.5316 71.4958 21.5373 71.2569 21.5373C70.9383 21.5373 70.2499 21.5088 69.1918 21.4519C68.8732 21.4292 68.4238 21.3666 67.8435 21.2642C67.104 21.1163 66.6204 20.6612 66.3929 19.8989C66.2108 19.3072 66.1198 18.6814 66.1198 18.0215C66.1198 17.3502 66.2222 16.5026 66.427 15.4786C66.4498 15.3876 66.4896 15.3136 66.5465 15.2567C66.6034 15.1998 66.6944 15.1657 66.8195 15.1543C66.9561 15.1316 67.0585 15.1202 67.1267 15.1202C67.195 15.1088 67.3202 15.1031 67.5022 15.1031H67.6558C67.872 15.1031 68.037 15.1145 68.1507 15.1373C68.2645 15.1486 68.3669 15.1998 68.4579 15.2909C68.549 15.3819 68.5945 15.5184 68.5945 15.7005V16.3831V16.9122V17.4583H70.4035C70.87 17.4583 71.2796 17.4526 71.6323 17.4413C71.712 17.4413 71.9964 17.4299 72.4857 17.4071C72.9749 17.373 73.2537 17.3559 73.3219 17.3559C73.7315 17.3332 73.9363 17.1227 73.9363 16.7245ZM108.505 9.07859C108.505 9.03308 108.488 8.72019 108.454 8.13993C108.42 7.54828 108.403 7.16713 108.403 6.99646V6.38206C109.119 6.31379 109.512 6.27397 109.58 6.26259C110.104 6.18295 110.417 6.18295 110.519 6.26259C110.633 6.34224 110.701 6.65513 110.724 7.20126C110.815 8.96482 110.769 11.4395 110.587 14.6253C110.587 14.7732 110.576 15.6094 110.553 17.1341C110.53 18.6587 110.513 19.5746 110.502 19.8818C110.468 20.1435 110.337 20.3028 110.109 20.3597C109.893 20.4279 109.592 20.4222 109.205 20.3426C108.704 20.2743 108.329 20.2686 108.078 20.3255C108.067 20.1435 108.039 19.5405 107.993 18.5165C107.948 17.4811 107.919 16.8667 107.908 16.6733C107.35 16.7301 107.043 16.7586 106.986 16.7586C106.804 16.7245 106.673 16.6448 106.594 16.5197C106.423 16.1328 106.286 15.7289 106.184 15.3079C106.173 15.2624 106.201 15.1998 106.269 15.1202C106.338 15.0292 106.394 14.9666 106.44 14.9325C106.486 14.9097 106.605 14.8699 106.798 14.813C106.992 14.7447 107.1 14.7049 107.123 14.6935C107.51 14.5229 107.754 14.3237 107.857 14.0962C107.97 13.8686 108.033 13.4647 108.044 12.8845C107.703 12.8162 107.521 12.7877 107.498 12.7991C106.929 12.7991 106.594 12.4635 106.491 11.7922C106.412 11.2688 106.394 10.8365 106.44 10.4951C106.463 10.4041 106.525 10.3131 106.628 10.2221C106.742 10.1197 106.855 10.0457 106.969 10.0002C107.31 9.8409 107.64 9.75557 107.959 9.74419C108.164 9.73282 108.306 9.67593 108.386 9.57353C108.465 9.47113 108.505 9.30615 108.505 9.07859ZM111.185 6.50153C111.458 6.35362 111.702 6.26828 111.918 6.24553C111.975 6.23415 112.061 6.22277 112.174 6.21139C112.288 6.18864 112.374 6.17157 112.43 6.16019C112.487 6.14882 112.556 6.14882 112.635 6.16019C112.726 6.17157 112.812 6.19433 112.891 6.22846C113.085 6.3081 113.244 6.44464 113.369 6.63806C113.494 6.8201 113.58 7.0249 113.625 7.25246C113.682 7.46864 113.716 7.73602 113.727 8.05459C113.739 8.37317 113.739 8.6633 113.727 8.92499C113.716 9.1753 113.699 9.4825 113.676 9.84659C113.665 10.1993 113.659 10.4781 113.659 10.6829C113.659 10.7511 113.654 11.0071 113.642 11.4509C113.642 11.8946 113.642 12.1506 113.642 12.2189C113.631 12.5943 113.602 13.1348 113.557 13.8402C113.523 14.5342 113.494 15.1657 113.471 15.7346C113.46 16.2921 113.46 16.8667 113.471 17.4583C113.471 18.3913 113.466 18.9886 113.454 19.2503C113.443 19.6827 113.335 20.0013 113.13 20.2061C112.937 20.4109 112.624 20.5189 112.191 20.5303C111.645 20.5417 111.327 20.5019 111.236 20.4109C111.145 20.3312 111.111 20.024 111.133 19.4893C111.133 19.3186 111.167 18.5165 111.236 17.0829C111.315 15.6493 111.355 14.8244 111.355 14.6082C111.355 14.4261 111.35 13.8516 111.338 12.8845C111.327 11.906 111.321 11.3826 111.321 11.3143C111.298 9.40286 111.167 7.86686 110.929 6.70633C110.917 6.66082 111.002 6.59255 111.185 6.50153ZM102.054 20.3255C100.723 20.3028 99.6133 19.7851 98.7259 18.7725C98.4187 18.4311 98.2139 17.8509 98.1115 17.0317C97.9522 15.8939 97.8782 14.8926 97.8896 14.0279C97.8896 12.5147 98.1797 11.064 98.76 9.67593C98.8169 9.55077 98.8624 9.46544 98.8965 9.41993C99.7157 8.52108 100.228 7.97495 100.433 7.78153C100.546 7.64499 100.774 7.57673 101.115 7.57673C101.809 7.40606 102.469 7.45726 103.095 7.73033C103.664 7.98064 104.255 8.37886 104.87 8.92499C105.484 9.47113 105.843 10.0059 105.945 10.5293C106.07 11.2574 106.11 11.8661 106.065 12.3554C105.974 13.5045 105.814 14.7732 105.587 16.1613C105.325 17.7769 104.642 18.9659 103.539 19.7282C102.867 20.1947 102.372 20.3938 102.054 20.3255ZM103.726 13.2087C103.726 13.0494 103.675 12.7764 103.573 12.3895C103.482 12.0709 103.283 11.8093 102.975 11.6045C102.68 11.3997 102.39 11.3257 102.105 11.3826C101.661 11.4736 101.343 11.8036 101.149 12.3725C101.081 12.5886 101.024 12.7821 100.979 12.9527C100.945 13.1234 100.927 13.3054 100.927 13.4989C100.927 13.6809 100.933 13.8288 100.945 13.9426C100.956 14.0564 100.979 14.2384 101.013 14.4887C101.047 14.739 101.07 14.9325 101.081 15.069C101.092 15.1373 101.104 15.2453 101.115 15.3933C101.127 15.5412 101.132 15.6436 101.132 15.7005C101.144 15.746 101.155 15.8256 101.166 15.9394C101.189 16.0418 101.212 16.1214 101.235 16.1783C101.257 16.2238 101.286 16.2864 101.32 16.3661C101.354 16.4343 101.394 16.4969 101.439 16.5538C101.496 16.6107 101.565 16.6676 101.644 16.7245C101.872 16.9065 102.105 16.9975 102.344 16.9975C102.549 16.9975 102.731 16.9179 102.89 16.7586C103.049 16.5993 103.152 16.4173 103.197 16.2125C103.243 16.019 103.419 15.0178 103.726 13.2087Z" fill="#FF7F20"/>
<path d="M60.748 16.5367C60.748 16.6505 60.7537 17.0999 60.765 17.885C60.7878 18.6587 60.7992 19.1024 60.7992 19.2162C60.8106 19.6713 60.6797 19.9785 60.4066 20.1378C59.724 20.5133 59.229 20.6953 58.9218 20.6839C58.3643 20.6839 57.9889 20.5815 57.7954 20.3767C57.602 20.1833 57.4882 19.8078 57.4541 19.2503C57.3745 17.6574 57.3346 16.5652 57.3346 15.9735C57.3346 15.1316 57.3915 12.4919 57.5053 8.05459C57.5281 7.80428 57.6362 7.29228 57.8296 6.51859C57.8409 6.4617 57.858 6.41619 57.8808 6.38206C57.9035 6.33655 57.932 6.30242 57.9661 6.27966C58.0116 6.25691 58.0458 6.24553 58.0685 6.24553C58.0913 6.23415 58.1425 6.22277 58.2221 6.21139C58.3018 6.18864 58.3643 6.17157 58.4098 6.16019C58.6943 6.08055 58.9332 6.02366 59.1266 5.98953C59.5135 5.90988 59.889 5.95539 60.253 6.12606C60.583 6.28535 60.765 6.59255 60.7992 7.04766C60.8106 7.24108 60.8219 7.92944 60.8333 9.11273C60.8447 10.2846 60.8674 11.0185 60.9016 11.3143C60.9357 11.5419 61.169 11.8775 61.6013 12.3213C61.9313 12.674 62.1816 12.9243 62.3522 13.0722C62.6253 13.3453 62.7505 13.6809 62.7277 14.0791C62.705 14.3408 62.6367 14.6708 62.5229 15.069C62.4205 15.4786 62.0621 15.6891 61.4477 15.7005C61.1178 15.7005 60.913 15.7517 60.8333 15.8541C60.765 15.9451 60.7366 16.1726 60.748 16.5367ZM47.1117 7.98633C47.3051 7.86117 47.4303 7.79859 47.4872 7.79859C47.5668 7.78722 47.9138 7.78153 48.5282 7.78153V7.74739C49.0744 7.78153 49.5977 7.81566 50.0984 7.84979C50.6104 7.88393 50.9631 7.90668 51.1565 7.91806C51.3499 7.92944 51.5945 7.95219 51.8904 7.98633C52.1976 8.00908 52.5617 8.04322 52.9826 8.08873C53.2102 8.11148 53.4093 8.24802 53.58 8.49833C53.762 8.73726 53.836 8.98757 53.8018 9.24926C53.7791 9.53371 53.6482 10.0855 53.4093 10.9047C53.159 11.5988 52.994 12.1108 52.9144 12.4407C52.8234 12.7024 52.8063 12.9129 52.8632 13.0722C52.9201 13.2201 53.0623 13.3225 53.2898 13.3794C53.6084 13.459 54.2797 13.6126 55.3037 13.8402C55.6337 13.9085 55.7418 14.1133 55.628 14.4546C55.6166 14.5001 55.5256 14.7959 55.3549 15.3421C55.1956 15.8768 55.0989 16.1954 55.0648 16.2978C54.8145 16.9008 54.4333 17.1853 53.9213 17.1511C53.8644 17.1511 53.8246 17.1568 53.8018 17.1682C53.6653 17.2365 53.5345 17.2706 53.4093 17.2706C53.25 17.2706 53.1362 17.2592 53.068 17.2365C52.9997 17.2137 52.9087 17.1625 52.7949 17.0829C52.7153 17.0146 52.6584 16.9691 52.6242 16.9463C52.5901 16.9122 52.5617 16.8894 52.5389 16.8781C52.5275 16.8553 52.4991 16.8155 52.4536 16.7586C52.4081 16.7017 52.3569 16.6448 52.3 16.5879C51.97 16.2352 51.7766 16.0304 51.7197 15.9735C51.4466 15.7232 51.1736 15.7346 50.9005 16.0077C50.6502 16.258 50.4283 16.531 50.2349 16.8269C50.178 16.9065 49.8993 17.3673 49.3986 18.2093C49.228 18.4823 48.9606 18.6757 48.5965 18.7895C48.2324 18.9147 47.8513 18.9147 47.453 18.7895C46.6225 18.5392 46.2697 17.7769 46.3949 16.5026C46.4177 16.2864 46.5485 16.093 46.7874 15.9223C46.9695 15.7858 47.3165 15.5469 47.8285 15.2055C48.3405 14.8528 48.7842 14.5342 49.1597 14.2498C49.5352 13.954 49.831 13.6866 50.0472 13.4477C50.1609 13.2997 50.2633 13.1348 50.3544 12.9527C50.4568 12.7593 50.525 12.5431 50.5592 12.3042C50.6047 12.0653 50.5535 11.8661 50.4056 11.7069C50.2463 11.5248 50.0017 11.4452 49.6717 11.4679C48.6477 11.5476 47.8399 11.3314 47.2482 10.8194C47.0434 10.6373 46.9353 10.4212 46.924 10.1709C46.9012 9.92055 46.9183 9.39717 46.9752 8.60073C46.9752 8.55522 47.0036 8.48695 47.0605 8.39593C47.1288 8.29353 47.1686 8.23664 47.18 8.22526C47.1913 8.16837 47.1686 8.08873 47.1117 7.98633ZM95.897 6.67219C95.897 6.69495 95.9311 6.72339 95.9994 6.75753C96.079 6.78028 96.1587 6.80304 96.2383 6.82579C96.3293 6.84855 96.3805 6.86562 96.3919 6.87699C96.4602 6.91113 96.5 6.94526 96.5114 6.97939C96.6024 7.29797 96.6365 7.66775 96.6138 8.08873C96.3976 10.5236 96.2099 12.691 96.0506 14.5911C95.914 16.093 95.8344 17.1056 95.8116 17.629C95.7661 18.3458 95.7149 18.9431 95.658 19.421C95.6239 19.6485 95.4646 19.9956 95.1802 20.4621C95.1119 20.5758 94.9583 20.6327 94.7194 20.6327C94.6739 20.6441 94.1732 20.6498 93.2175 20.6498C93.0468 20.6498 92.9103 20.5986 92.8079 20.4962C92.7055 20.4052 92.6486 20.28 92.6372 20.1207L92.5178 18.3287C92.5178 18.3173 92.5064 18.1922 92.4836 17.9533C92.4723 17.7029 92.4666 17.555 92.4666 17.5095C92.5007 17.0089 92.569 16.514 92.6714 16.0247C92.7283 15.6948 92.7055 15.4786 92.6031 15.3762C92.5121 15.2738 92.3073 15.2567 91.9887 15.325C91.5222 15.416 91.1297 15.3079 90.8111 15.0007C90.4925 14.6935 90.3731 14.3067 90.4527 13.8402C90.5324 13.3965 90.7144 13.0437 90.9988 12.7821C91.2947 12.509 91.6815 12.3554 92.1594 12.3213C92.3756 12.3099 92.5747 12.2302 92.7567 12.0823C92.9388 11.923 93.0355 11.741 93.0468 11.5362C93.0582 11.3883 93.098 10.8592 93.1663 9.94899C93.2346 9.02739 93.2744 8.45282 93.2858 8.22526C93.3085 8.04322 93.3654 7.74739 93.4564 7.33779C93.5475 6.96233 93.7864 6.78028 94.1732 6.79166C94.6284 6.80304 95.0493 6.80873 95.4362 6.80873C95.4476 6.80873 95.6012 6.76322 95.897 6.67219ZM83.5066 9.57353C83.5066 9.51664 83.4611 9.30615 83.37 8.94206V8.72019C84.1437 8.50402 84.9857 8.47557 85.8959 8.63486C86.0779 8.66899 86.2316 8.83397 86.3567 9.12979C86.4932 9.42562 86.5444 9.69299 86.5103 9.93193C86.4989 10.0343 86.4534 10.7056 86.3738 11.9458C86.3738 12.0482 86.3908 12.1165 86.425 12.1506C86.4705 12.1733 86.5501 12.1904 86.6639 12.2018C87.9041 12.3725 88.8598 12.6285 89.5311 12.9698C89.7928 13.0949 89.9407 13.1973 89.9748 13.277C90.0203 13.3453 90.0147 13.5216 89.9578 13.8061C89.9236 13.954 89.8781 14.2896 89.8212 14.813C89.7757 15.3364 89.7302 15.6834 89.6847 15.8541C89.5709 16.2295 89.4116 16.3831 89.2068 16.3149C88.7745 16.1669 88.4502 16.093 88.234 16.093C88.1999 16.093 88.1373 16.0645 88.0463 16.0077C87.0223 15.5867 86.3567 15.1998 86.0495 14.8471C85.9357 14.7106 85.7195 14.5456 85.401 14.3522C84.5476 15.7175 83.882 16.696 83.4042 17.2877C83.3018 17.3901 83.1595 17.5721 82.9775 17.8338C82.7955 18.0955 82.6532 18.2775 82.5508 18.3799C82.3233 18.5847 82.1583 18.6871 82.0559 18.6871C81.9876 18.6871 81.9137 18.6701 81.834 18.6359C81.0831 18.1581 80.6223 17.373 80.4516 16.2807C80.4289 16.0987 80.4971 15.8939 80.6564 15.6663C81.0205 15.1543 81.6122 14.3465 82.4314 13.2429C82.5679 13.0494 82.7215 12.8731 82.8922 12.7138C82.9832 12.6228 83.0571 12.5317 83.114 12.4407C83.1709 12.3383 83.2164 12.2075 83.2506 12.0482C83.2847 11.8889 83.3075 11.7637 83.3188 11.6727C83.3302 11.5817 83.3416 11.4224 83.353 11.1949C83.3757 10.9559 83.3928 10.7796 83.4042 10.6658C83.4497 10.1993 83.4838 9.83522 83.5066 9.57353Z" fill="#006259"/>
</svg>
