<svg width="240" height="141" viewBox="0 0 240 141" fill="none" xmlns="http://www.w3.org/2000/svg">
<path d="M47.04 22.84C47.4 24.28 47.6 25.08 47.64 25.16C47.8 25.72 47.68 26.32 47.28 26.96C46.88 27.6 46.4 28.08 45.84 28.36C45.24 28.68 44.64 28.92 44 29.12V29.32C44 29.4 44.04 29.8 44.08 30.44C44.08 31.12 44.12 31.48 44.16 31.48C44.84 31.48 46.44 31.56 48.92 31.64C51.4 31.72 52.96 31.76 53.64 31.76L57.04 31.44C57.12 31.52 57.2 31.56 57.36 31.64C57.52 31.72 57.68 31.92 57.92 32.2C58.12 32.48 58.2 32.76 58.16 33.08C58.12 33.24 57.96 34.32 57.64 36.24C57.24 36.28 57.04 36.28 57.04 36.28C56.88 36.28 52.2 36.24 43 36.12C42.48 36.12 41.12 36.16 38.88 36.24C36.64 36.32 35.32 36.36 35 36.36C34.36 36.36 32.72 36.36 30.12 36.28C27.48 36.24 25.88 36.2 25.28 36.16C25.12 36.16 24.72 36.2 24.12 36.24C23.48 36.32 23.12 36.32 22.96 36.32C22.72 36.32 22.52 36.32 22.36 36.28C22.2 36.24 22.08 36.16 22 36C21.92 35.88 21.88 35.76 21.88 35.68C21.88 35.6 21.84 35.4 21.84 35.12C21.84 34.84 21.84 34.6 21.84 34.4C21.76 33.92 21.76 33.24 21.84 32.36C21.84 31.88 22.08 31.6 22.56 31.6C23.2 31.6 25.16 31.6 28.44 31.64C31.68 31.72 33.68 31.72 34.48 31.68H35.12H36.2C36.52 31.68 36.76 31.68 36.88 31.64C36.76 30.76 36.76 30.12 36.84 29.8C35.6 29.68 34.32 29.44 33 29.08C32.28 28.92 31.72 28.6 31.32 28.16C30.92 27.76 30.56 27.2 30.32 26.56C29.72 25.16 30.12 23.96 31.56 22.92C31.56 22.92 31.92 22.68 32.64 22.2C30.96 22.08 30.12 22 30.04 22C29.16 22 28.56 21.88 28.28 21.64C27.96 21.4 27.76 20.96 27.68 20.28C27.56 19.56 27.52 19.04 27.56 18.72C27.56 18.64 27.6 18.56 27.76 18.4C27.92 18.28 28.04 18.2 28.16 18.2C29.92 18.04 31.16 17.96 31.88 18C32.52 18.04 33.48 18.12 34.68 18.24C35.88 18.36 36.68 18.44 37.12 18.48C38.32 18.56 39.52 18.6 40.72 18.6C41.36 18.6 42.32 18.6 43.6 18.56C44.88 18.52 45.88 18.48 46.52 18.48C47.2 18.48 47.88 18.56 48.52 18.72C49.16 18.88 49.56 19.04 49.72 19.28C49.88 19.52 49.88 19.88 49.76 20.4C49.72 20.44 49.68 20.48 49.64 20.56C49.6 20.64 49.6 20.68 49.6 20.72C49.68 21.44 49.48 21.96 49.08 22.28C48.68 22.6 48 22.76 47.04 22.84ZM35.32 25.32C35.2 25.72 35.28 25.96 35.52 26.08C35.76 26.24 36.12 26.32 36.6 26.4C37.64 26.6 38.68 26.68 39.76 26.68H40C40.56 26.68 41.32 26.56 42.24 26.24C42.6 26.16 42.84 25.96 42.96 25.72C43.04 25.48 43.12 25.16 43.16 24.76C43.16 24.32 42.88 24 42.28 23.8C41.8 23.68 41.36 23.6 40.92 23.6C39.88 23.6 38.64 23.64 37.28 23.72C36.76 23.76 36.32 23.92 35.92 24.24C35.52 24.56 35.32 24.92 35.32 25.32ZM32.32 13.84H33.44H34.84H36.8H39.44C42.08 14.16 44.32 14.44 46.12 14.68C46.32 14.76 46.56 14.88 46.8 15.04C47.04 15.24 47.24 15.44 47.32 15.68C47.76 16.64 47.64 17.48 46.96 18.24C46.84 18.4 46.64 18.48 46.32 18.44C45.52 18.44 44.4 18.36 42.96 18.28C41.48 18.2 40.4 18.16 39.76 18.12H38.72H37.68C35.84 18.08 34.32 18.04 33.12 17.96C32.6 17.96 32.24 17.84 32.08 17.64C31.92 17.48 31.84 17.12 31.88 16.64C31.88 16.52 32.04 15.6 32.32 13.84ZM38.16 43.96H42.28H46.68C49.92 43.96 52.12 44 53.28 44C53.36 44 53.48 44.04 53.56 44.04C53.64 44.08 53.68 44.12 53.76 44.12C53.8 44.16 53.84 44.2 53.92 44.28L54.04 44.48C54.04 44.52 54.08 44.6 54.12 44.68C54.12 44.8 54.16 44.88 54.16 44.92C54.16 44.96 54.2 45.04 54.24 45.16C54.24 45.28 54.28 45.36 54.28 45.36C54.32 45.64 54.36 45.92 54.36 46.2C54.36 47.12 54.08 48.04 53.6 49C53.44 49.28 53.12 49.48 52.56 49.56C52 49.64 50.12 49.76 46.92 49.92C43.72 50.08 41.84 50.2 41.24 50.28C41.08 50.32 40.92 50.32 40.8 50.32C40.12 50.32 38.68 50.36 36.48 50.4C34.28 50.44 32.68 50.48 31.68 50.52C31.44 50.52 31 50.56 30.44 50.6C29.88 50.64 29.44 50.64 29.16 50.64C28.24 50.64 27.48 50.48 26.88 50.12C26.72 50.04 26.56 49.84 26.4 49.6C26.24 49.36 26.16 49.16 26.16 48.92C26.08 47.72 25.96 45.8 25.84 43.16C25.68 40.52 25.6 38.96 25.6 38.48H25.64C25.76 38.48 26 38.44 26.36 38.36C26.72 38.28 27 38.16 27.16 38.04C27.36 37.88 27.68 37.8 28.08 37.8C28.6 37.8 29.44 38 30.56 38.36C30.88 38.48 31.04 38.68 31.04 38.96C31.04 39.08 31 39.24 31 39.44C31 39.68 31 39.84 31 39.96V40.8V41.6V42.8V43.96H38.16ZM119.64 14.36C122.2 14.52 123.48 14.6 123.52 14.6C127.2 14.96 130.04 16.4 132.08 18.88C132.32 19.24 132.52 19.76 132.64 20.44C132.8 21.72 132.52 23.16 131.88 24.8C131.16 26.64 129.8 27.76 127.72 28.16C126.52 28.4 125.28 28.56 124 28.6V28.68C124 28.76 124.04 29.16 124.08 29.8C124.08 30.48 124.12 30.84 124.16 30.84C124.84 30.84 126.44 30.92 128.92 31C131.4 31.12 132.96 31.16 133.64 31.16L137.04 30.8C137.12 30.88 137.2 30.92 137.36 31C137.52 31.08 137.68 31.28 137.92 31.56C138.12 31.88 138.2 32.16 138.16 32.48C138.12 32.64 137.96 33.68 137.64 35.6C137.24 35.68 137.04 35.68 137.04 35.68C136.88 35.68 132.2 35.64 123 35.52C122.48 35.52 121.12 35.56 118.88 35.64C116.64 35.72 115.32 35.72 115 35.72C114.36 35.72 112.72 35.72 110.12 35.68C107.48 35.64 105.88 35.6 105.28 35.56C105.12 35.56 104.72 35.56 104.12 35.64C103.48 35.72 103.12 35.72 102.96 35.68C102.72 35.68 102.52 35.68 102.36 35.64C102.2 35.6 102.08 35.52 102 35.36C101.92 35.24 101.88 35.12 101.88 35.04C101.88 34.96 101.84 34.8 101.84 34.48C101.84 34.2 101.84 33.96 101.84 33.8C101.76 33.32 101.76 32.6 101.84 31.72C101.84 31.24 102.08 31 102.56 30.96C103.2 30.96 105.16 31 108.44 31.04C111.68 31.12 113.68 31.12 114.48 31.08H115.12C115.48 31.08 115.84 31.08 116.2 31.08C116.52 31.08 116.76 31.04 116.88 31.04C116.72 29.84 116.8 29.08 117.04 28.72C114.44 28.6 112.24 28.12 110.4 27.32C108.16 26.4 107.16 24.84 107.4 22.64C107.6 20.84 108.56 19.12 110.24 17.44C111.56 16.12 113.68 15.16 116.64 14.6C116.92 14.56 117.24 14.52 117.6 14.48C117.92 14.48 118.32 14.44 118.72 14.44C119.12 14.44 119.44 14.4 119.64 14.36ZM119.72 24.32C121.32 24.24 122.16 24.16 122.28 24.16C122.76 24.12 123.28 23.92 123.76 23.6C124.24 23.28 124.52 22.96 124.6 22.64C124.68 21.92 124.6 21.28 124.28 20.8C123.96 20.32 123.32 20 122.44 19.8C120.48 19.4 118.72 19.36 117.2 19.72C116.4 19.92 115.96 20.08 115.84 20.2C115.4 20.68 114.96 21.36 114.48 22.24C114.08 22.96 114.36 23.4 115.28 23.64C117.2 24.2 118.68 24.44 119.72 24.32ZM120.04 45.44C119.4 45.44 118.84 45.48 118.28 45.48C117.36 45.48 116.44 45.56 115.56 45.72C115.4 45.76 115.2 45.84 115.04 46C114.88 46.16 114.8 46.24 114.8 46.32C114.88 46.76 115.08 47.08 115.44 47.24C115.64 47.36 115.96 47.4 116.36 47.4C116.68 47.4 117.08 47.4 117.56 47.32C117.96 47.28 118.28 47.24 118.52 47.24C118.72 47.24 118.92 47.28 119.12 47.28C119.6 47.4 120.12 47.44 120.68 47.44C121.4 47.44 122.4 47.32 123.68 47.04C124.32 46.92 124.68 46.56 124.68 46C124.68 45.92 124.64 45.76 124.64 45.6L124.4 45.48H123C122.44 45.48 121.88 45.48 121.4 45.48C120.92 45.48 120.44 45.44 120.04 45.44ZM113.08 39.4V40.68V41.92H115.2H117.32C118.4 41.92 119.36 41.92 120.2 41.88C120.68 41.88 121.44 41.88 122.4 41.8C123.36 41.72 123.92 41.68 124.16 41.68C125.12 41.64 125.6 41.16 125.6 40.2V39.96V39.76C125.6 39.16 125.64 38.68 125.72 38.28C125.8 37.88 125.84 37.6 125.88 37.48C125.92 37.4 126 37.24 126.12 37.04C126.2 36.88 126.36 36.76 126.56 36.72C126.72 36.68 127 36.64 127.36 36.64C127.44 36.64 127.8 36.6 128.52 36.48C129.24 36.4 129.64 36.36 129.76 36.36C131.04 36.72 131.8 37.04 132.08 37.32C132.36 37.64 132.52 38.32 132.52 39.44C132.52 41.36 132.44 43.72 132.28 46.52C132.2 47.6 131.72 48.52 130.84 49.28C129.96 50.08 128.88 50.52 127.64 50.6C127.04 50.68 125.96 50.8 124.44 51.04C122.92 51.28 121.72 51.4 120.88 51.44C120.4 51.48 119.88 51.48 119.32 51.48C118.56 51.48 116.96 51.44 114.48 51.28C113.72 51.24 112.68 51.08 111.32 50.84C109.56 50.52 108.44 49.44 107.92 47.64C107.48 46.28 107.28 44.8 107.28 43.24C107.28 41.68 107.52 39.68 108 37.28C108.04 37.08 108.12 36.92 108.28 36.76C108.4 36.64 108.6 36.56 108.88 36.52C109.16 36.48 109.4 36.44 109.64 36.44C109.84 36.44 110.12 36.4 110.52 36.4H110.88C111.2 36.4 111.44 36.44 111.6 36.44C111.76 36.44 111.92 36.48 112.16 36.52C112.4 36.56 112.56 36.64 112.68 36.72C112.76 36.8 112.88 36.96 112.96 37.12C113.04 37.32 113.08 37.56 113.08 37.8V39.4ZM206.4 15.96C208.08 15.8 209 15.72 209.16 15.68C210.36 15.52 211.12 15.52 211.36 15.68C211.6 15.88 211.76 16.6 211.84 17.88C211.96 20.6 212 23.36 211.92 26.16C211.88 27.36 211.8 29.04 211.72 31.24C211.6 33.48 211.52 34.8 211.52 35.28C211.48 36.44 211.44 38.48 211.44 41.36C211.4 44.24 211.36 46.32 211.32 47.6C211.28 47.8 211.2 48 211.08 48.24C210.96 48.48 210.84 48.64 210.72 48.64C210.24 48.84 209.4 48.84 208.24 48.68C207.08 48.52 206.2 48.52 205.64 48.64C205.56 47.8 205.52 46.36 205.44 44.36C205.36 42.36 205.28 40.92 205.24 40.08C203.92 40.24 203.2 40.28 203.08 40.28C202.92 40.28 202.72 40.2 202.56 40.08C202.36 40 202.24 39.88 202.16 39.72C201.76 38.84 201.44 37.88 201.2 36.88C201.16 36.8 201.2 36.64 201.36 36.44C201.52 36.24 201.64 36.08 201.8 36C201.96 35.92 202.24 35.8 202.64 35.68C203 35.6 203.24 35.52 203.4 35.44C204.28 35.04 204.84 34.6 205.12 34.04C205.36 33.52 205.52 32.56 205.56 31.2C204.76 31.04 204.32 31 204.28 31C202.92 31 202.16 30.24 201.92 28.64C201.72 27.44 201.68 26.4 201.8 25.6C201.84 25.44 202 25.24 202.24 25C202.48 24.76 202.72 24.6 203.04 24.44C203.84 24.08 204.6 23.88 205.36 23.84C205.84 23.84 206.2 23.68 206.36 23.4C206.52 23.16 206.64 22.76 206.64 22.28C206.6 21.64 206.56 20.8 206.48 19.76C206.4 18.72 206.4 17.92 206.4 17.4V15.96ZM213.92 15.76C214.08 15.72 214.32 15.68 214.64 15.64C214.96 15.6 215.16 15.56 215.32 15.52C215.88 15.36 216.4 15.4 216.88 15.6C217.36 15.8 217.72 16.12 218 16.52C218.24 16.96 218.44 17.4 218.6 17.88C218.72 18.36 218.8 18.8 218.84 19.28C218.84 20.28 218.84 21.04 218.84 21.52C218.84 22.04 218.8 22.8 218.76 23.8C218.72 24.8 218.72 25.56 218.72 26.04C218.68 26.36 218.68 26.96 218.68 27.84C218.68 28.72 218.68 29.32 218.68 29.64C218.64 30.36 218.56 31.64 218.48 33.48C218.36 35.32 218.28 36.72 218.28 37.72C218.24 38.36 218.24 39.76 218.24 41.92C218.24 44.12 218.24 45.52 218.24 46.12C218.2 47.12 217.96 47.88 217.52 48.36C217.04 48.84 216.32 49.12 215.28 49.12C214 49.16 213.24 49.08 213.04 48.88C212.8 48.68 212.72 47.96 212.8 46.68C212.8 45.84 212.88 44 213.04 41.16C213.2 38.32 213.28 36.36 213.32 35.24C213.32 34.24 213.32 32.8 213.28 30.88C213.24 29 213.24 27.88 213.24 27.52C213.16 23.04 212.88 19.44 212.32 16.72C212.28 16.64 212.48 16.48 212.92 16.24C213.32 16 213.68 15.84 213.92 15.76ZM191.52 48.64C188.4 48.6 185.8 47.4 183.72 45C183 44.2 182.52 42.84 182.28 40.92C181.88 38.28 181.72 35.92 181.76 33.88C181.76 30.36 182.44 26.96 183.8 23.68C183.92 23.4 184.04 23.2 184.12 23.08C186.04 21 187.24 19.72 187.72 19.24C187.8 19.12 187.96 19.04 188.12 18.96C188.28 18.92 188.52 18.88 188.8 18.84C189.04 18.8 189.24 18.76 189.32 18.76C190.92 18.36 192.48 18.48 193.96 19.12C195.4 19.76 196.88 20.8 198.4 22.16C199.68 23.44 200.4 24.6 200.64 25.68C200.92 27.4 201 28.84 200.92 29.96C200.68 32.68 200.32 35.64 199.8 38.88C199.16 42.68 197.56 45.48 195 47.24C193.4 48.36 192.24 48.8 191.52 48.64ZM195.44 31.96C195.44 31.88 195.4 31.64 195.36 31.32C195.28 31 195.24 30.76 195.2 30.6C195.16 30.48 195.12 30.28 195.04 30.04C194.96 29.8 194.88 29.6 194.8 29.4C194.68 29.24 194.56 29.04 194.44 28.88C193.56 27.88 192.64 27.48 191.6 27.68C190.56 27.92 189.84 28.68 189.4 30C188.88 31.52 188.72 32.88 188.96 34.08C189.04 34.56 189.12 35.32 189.24 36.32C189.32 37.36 189.44 38.12 189.56 38.64C189.64 39.24 189.96 39.76 190.52 40.2C191.08 40.64 191.64 40.84 192.2 40.84C192.6 40.84 193.04 40.68 193.44 40.32C193.84 40 194.08 39.56 194.2 39C194.28 38.56 194.72 36.2 195.44 31.96Z" fill="#FF7F20"/>
<path d="M90.4 49.48C89.12 49.48 88.24 49.28 87.76 48.8C87.28 48.32 87.04 47.44 86.96 46.12C86.76 42.4 86.68 39.84 86.68 38.44C86.68 36.48 86.8 30.28 87.08 19.88C87.08 19.6 87.12 19.28 87.2 18.96C87.24 18.64 87.28 18.36 87.36 18.12C87.4 17.88 87.48 17.6 87.6 17.2C87.68 16.8 87.76 16.52 87.84 16.28C87.92 15.96 88.08 15.72 88.36 15.64C88.44 15.64 88.72 15.56 89.16 15.44C89.6 15.32 89.92 15.24 90.08 15.2C90.24 15.16 90.48 15.12 90.88 15.04C91.24 14.96 91.52 14.96 91.76 14.96C92 14.96 92.28 15 92.6 15.08C92.92 15.16 93.2 15.24 93.52 15.36C94.28 15.76 94.72 16.48 94.8 17.52C94.8 18 94.84 19.6 94.88 22.36C94.88 25.12 94.96 26.84 95.04 27.52C95.12 28 95.4 28.52 95.88 29.04C96.12 29.32 96.36 29.6 96.64 29.88C96.92 30.2 97.24 30.52 97.6 30.84C97.92 31.2 98.2 31.48 98.44 31.64C98.76 31.96 98.96 32.32 99.12 32.68C99.28 33.08 99.32 33.52 99.28 34C99.24 34.48 99.2 34.84 99.16 35.08C99.08 35.32 99 35.76 98.84 36.32C98.6 37.28 97.76 37.8 96.32 37.8C95.56 37.8 95.08 37.92 94.92 38.12C94.72 38.36 94.64 38.88 94.68 39.76C94.68 40.36 94.68 41.44 94.72 42.96C94.76 44.48 94.8 45.52 94.8 46.04C94.8 47.12 94.52 47.84 93.88 48.2C92.28 49.08 91.12 49.52 90.4 49.48ZM66.04 19.16C69.88 19.44 72 19.6 72.4 19.6C74.16 19.76 75.52 19.88 76.48 19.96C77 20.04 77.48 20.36 77.88 20.92C78.28 21.48 78.48 22.08 78.4 22.68C78.32 23.36 78.04 24.64 77.48 26.56C77.32 26.96 77.12 27.52 76.88 28.32C76.6 29.12 76.4 29.76 76.32 30.16C76.12 30.8 76.08 31.28 76.24 31.68C76.32 32 76.64 32.24 77.2 32.36C77.92 32.56 79.52 32.92 81.92 33.44C82.68 33.6 82.92 34.08 82.68 34.88C82.6 35.12 82.4 35.8 82.12 36.84C81.8 37.88 81.56 38.68 81.36 39.2C80.76 40.64 79.88 41.28 78.68 41.2C78.52 41.2 78.44 41.24 78.4 41.24C78.08 41.4 77.76 41.48 77.48 41.48C77.16 41.48 76.92 41.48 76.76 41.44C76.56 41.4 76.32 41.28 76.04 41.04C75.72 40.8 75.56 40.64 75.48 40.56C75.4 40.48 75.2 40.24 74.88 39.88C74.08 39.08 73.64 38.6 73.52 38.44C73.2 38.2 72.88 38.08 72.56 38.08C72.2 38.08 71.88 38.24 71.6 38.52C71 39.12 70.48 39.76 70.04 40.44C69.88 40.64 69.24 41.72 68.08 43.68C67.64 44.4 67 44.84 66.12 45.08C65.24 45.32 64.36 45.32 63.48 45.04C62.6 44.8 62 44.32 61.64 43.64C61.08 42.68 60.88 41.36 61.04 39.68C61.08 39.2 61.4 38.72 61.96 38.32C62.6 37.84 63.52 37.2 64.76 36.36C65.96 35.52 66.88 34.88 67.44 34.44C68.32 33.8 69.04 33.16 69.6 32.52C70.16 31.88 70.52 31.08 70.76 30.16C70.92 29.44 70.8 28.88 70.44 28.44C70.04 28.04 69.48 27.84 68.72 27.88C66.32 28.08 64.4 27.56 63.04 26.36C62.56 25.96 62.28 25.44 62.28 24.84C62.2 24.28 62.24 23.04 62.4 21.16C62.4 21.04 62.44 20.88 62.6 20.72C62.72 20.56 62.8 20.4 62.84 20.28C62.88 20.16 62.84 19.96 62.72 19.72L63 19.52C63.12 19.44 63.24 19.4 63.32 19.36C63.4 19.32 63.52 19.28 63.6 19.28C63.76 19.28 64.6 19.24 66.04 19.24V19.16ZM177.08 16.64C177.08 16.68 177.08 16.72 177.16 16.72C177.24 16.8 177.4 16.84 177.64 16.92C177.88 17 178.08 17.04 178.24 17.12C178.4 17.2 178.48 17.28 178.52 17.36C178.72 18.12 178.8 19 178.76 19.96C178.72 20.28 178.52 22.4 178.2 26.32C177.92 29.28 177.68 32.24 177.44 35.2C177.16 38.08 177 39.8 177 40.36C176.92 40.84 176.88 41.48 176.84 42.32C176.8 43.16 176.76 43.92 176.72 44.6C176.64 45.28 176.6 45.92 176.52 46.52C176.44 47.08 176.04 47.88 175.4 48.96C175.24 49.24 174.88 49.36 174.32 49.36C174.2 49.4 173.04 49.4 170.8 49.4C170.4 49.4 170.08 49.32 169.84 49.08C169.6 48.84 169.44 48.56 169.44 48.16L169.16 43.96C169.16 43.88 169.12 43.6 169.08 43.12C169 42.64 169 42.28 169.04 42.04C169.12 40.88 169.28 39.72 169.52 38.56C169.64 37.8 169.6 37.28 169.36 37.04C169.12 36.8 168.64 36.76 167.92 36.92C166.8 37.16 165.88 36.88 165.16 36.16C164.4 35.44 164.12 34.56 164.32 33.44C164.48 32.4 164.92 31.56 165.64 30.92C166.32 30.32 167.2 29.96 168.32 29.88C168.84 29.88 169.32 29.68 169.72 29.32C170.12 28.96 170.36 28.52 170.4 28.04C170.44 27.24 170.52 26 170.68 24.24C170.8 22.52 170.88 21.2 170.96 20.28C171 19.88 171.12 19.16 171.36 18.2C171.56 17.32 172.12 16.92 173.04 16.92C174.08 16.96 175.08 16.96 176 16.96C176 16.96 176.36 16.88 177.08 16.64ZM147.72 21.44C149.52 20.96 151.48 20.88 153.64 21.24C154.04 21.32 154.4 21.72 154.72 22.4C155.04 23.08 155.16 23.72 155.08 24.28C155.04 24.52 154.92 26.12 154.76 29C154.76 29.24 154.8 29.4 154.92 29.48C155 29.56 155.2 29.6 155.44 29.6C158.32 30 160.56 30.6 162.16 31.4C162.76 31.72 163.12 31.96 163.2 32.12C163.28 32.28 163.28 32.72 163.16 33.36C163 33.92 162.92 34.72 162.88 35.68C162.8 36.68 162.68 37.52 162.52 38.16C162.36 38.68 162.16 39 161.96 39.12C161.76 39.28 161.56 39.32 161.36 39.24C161.16 39.16 160.84 39.08 160.4 38.92C159.96 38.8 159.52 38.72 159.12 38.72C159.04 38.72 158.92 38.72 158.84 38.64L158.68 38.52C156.28 37.56 154.72 36.64 154 35.8C153.88 35.68 153.76 35.56 153.6 35.44C153.44 35.32 153.24 35.16 153 35C152.76 34.84 152.6 34.72 152.48 34.64C151.36 36.4 150.8 37.32 150.72 37.44C149.36 39.4 148.4 40.76 147.8 41.52C147.68 41.64 147.52 41.8 147.36 42.04C147.2 42.28 147.04 42.52 146.88 42.72C146.72 42.92 146.56 43.16 146.36 43.44C146.12 43.72 145.92 43.92 145.76 44.08C145.6 44.24 145.4 44.4 145.2 44.56C144.96 44.72 144.8 44.8 144.64 44.8C144.48 44.8 144.28 44.76 144.12 44.68C142.36 43.56 141.28 41.72 140.88 39.16C140.8 38.76 140.96 38.28 141.36 37.72C142.2 36.52 143.6 34.64 145.52 32.04C145.84 31.6 146.2 31.2 146.6 30.8C147.16 30.24 147.48 29.44 147.56 28.36C147.6 27.92 147.68 27.16 147.8 26.04C147.88 24.92 147.96 24.08 148.04 23.44C148.04 23.28 148 23.12 148 22.96C147.96 22.8 147.92 22.64 147.84 22.44C147.76 22.24 147.72 22.08 147.72 21.96V21.44Z" fill="#006259"/>
<path d="M42.1259 81.5349C42.1259 81.5349 41.3543 71.7627 59.8406 74.2602C59.8406 74.2602 59.0902 82.2023 42.1259 81.5349Z" fill="#009245" stroke="#006259" stroke-width="2.65487" stroke-miterlimit="10"/>
<ellipse cx="41.6638" cy="104.881" rx="28.1416" ry="23.8938" fill="#006259"/>
<ellipse cx="41.6638" cy="104.882" rx="24.9558" ry="20.708" fill="#FF9D1F"/>
<circle cx="51.7522" cy="102.758" r="4.77876" fill="#FFEED9"/>
<circle cx="50.9557" cy="102.492" r="3.9823" fill="#006259"/>
<circle cx="32.6372" cy="102.758" r="4.77876" fill="#FFEED9"/>
<circle cx="31.8407" cy="102.492" r="3.9823" fill="#006259"/>
<path d="M48.0354 98.5098H55.469" stroke="#006259" stroke-width="1.59292" stroke-linecap="round"/>
<path d="M28.9204 98.5098H36.354" stroke="#006259" stroke-width="1.59292" stroke-linecap="round"/>
<path d="M39.2564 100.747C40.2794 97.8683 44.3511 97.8683 45.374 100.747L46.3982 103.63C47.149 105.743 45.582 107.963 43.3394 107.963H41.291C39.0485 107.963 37.4815 105.743 38.2322 103.63L39.2564 100.747Z" fill="#006259"/>
<path d="M45.8767 111.353C44.8171 112.345 41.8758 113.763 38.5882 111.501" stroke="#006259" stroke-width="1.59292" stroke-linecap="round"/>
<ellipse cx="32.8525" cy="103.307" rx="7.11788" ry="4.9618" fill="black"/>
<ellipse cx="51.3061" cy="103.307" rx="7.11788" ry="4.9618" fill="black"/>
<path d="M38.9158 101.847H46.2973" stroke="black" stroke-width="1.59292" stroke-linecap="round"/>
<mask id="mask0_691_3101" style="mask-type:alpha" maskUnits="userSpaceOnUse" x="25" y="98" width="34" height="11">
<ellipse cx="32.8525" cy="103.307" rx="7.11788" ry="4.9618" fill="black"/>
<ellipse cx="51.3061" cy="103.307" rx="7.11788" ry="4.9618" fill="black"/>
<path d="M38.9158 101.847H46.2973" stroke="black" stroke-width="1.59292" stroke-linecap="round"/>
</mask>
<g mask="url(#mask0_691_3101)">
<rect opacity="0.4" width="2.90385" height="29.5468" transform="matrix(0.764532 -0.644585 0.767411 0.641155 22.2568 94.3792)" fill="#D9D9D9"/>
<rect opacity="0.4" width="2.90385" height="29.5468" transform="matrix(0.764532 -0.644585 0.767411 0.641155 42.427 94.9631)" fill="#D9D9D9"/>
<rect opacity="0.4" width="1.92545" height="29.5468" transform="matrix(0.764532 -0.644585 0.767411 0.641155 20.1704 96.8345)" fill="#D9D9D9"/>
<rect opacity="0.4" width="1.92545" height="29.5468" transform="matrix(0.764532 -0.644585 0.767411 0.641155 40.9243 97.4182)" fill="#D9D9D9"/>
</g>
<path d="M120.462 81.5349C120.462 81.5349 119.691 71.7627 138.177 74.2602C138.177 74.2602 137.426 82.2023 120.462 81.5349Z" fill="#009245" stroke="#006259" stroke-width="2.65487" stroke-miterlimit="10"/>
<ellipse cx="120" cy="104.881" rx="28.1416" ry="23.8938" fill="#006259"/>
<ellipse cx="120" cy="104.882" rx="24.9558" ry="20.708" fill="#FF9D1F"/>
<circle cx="130.089" cy="102.758" r="4.77876" fill="#FFEED9"/>
<circle cx="129.292" cy="102.492" r="3.9823" fill="#006259"/>
<circle cx="110.973" cy="102.758" r="4.77876" fill="#FFEED9"/>
<circle cx="110.177" cy="102.492" r="3.9823" fill="#006259"/>
<path d="M126.372 98.5098H133.805" stroke="#006259" stroke-width="1.59292" stroke-linecap="round"/>
<path d="M107.257 98.5098H114.69" stroke="#006259" stroke-width="1.59292" stroke-linecap="round"/>
<path d="M117.593 100.747C118.616 97.8683 122.687 97.8683 123.71 100.747L124.734 103.63C125.485 105.743 123.918 107.963 121.676 107.963H119.627C117.385 107.963 115.818 105.743 116.568 103.63L117.593 100.747Z" fill="#006259"/>
<path d="M124.213 111.353C123.153 112.345 120.212 113.763 116.924 111.501" stroke="#006259" stroke-width="1.59292" stroke-linecap="round"/>
<g clip-path="url(#clip0_691_3101)">
<path d="M210.862 87.9067C210.862 87.9067 210.09 78.1346 228.576 80.6321C228.576 80.6321 227.826 88.5741 210.862 87.9067Z" fill="#009245" stroke="#006259" stroke-width="2.65487" stroke-miterlimit="10"/>
<ellipse cx="196.212" cy="108.068" rx="28.1416" ry="23.8938" fill="#006259"/>
<ellipse cx="196.212" cy="108.068" rx="24.9558" ry="20.708" fill="#FF9D1F"/>
<circle cx="206.301" cy="105.944" r="4.77876" fill="#FFEED9"/>
<circle cx="205.504" cy="105.678" r="3.9823" fill="#006259"/>
<circle cx="187.186" cy="105.944" r="4.77876" fill="#FFEED9"/>
<circle cx="186.389" cy="105.678" r="3.9823" fill="#006259"/>
<path d="M202.584 101.696H210.018" stroke="#006259" stroke-width="1.59292" stroke-linecap="round"/>
<path d="M183.469 101.696H190.903" stroke="#006259" stroke-width="1.59292" stroke-linecap="round"/>
<path d="M193.805 103.933C194.828 101.054 198.9 101.054 199.923 103.933L200.947 106.816C201.698 108.929 200.131 111.149 197.888 111.149H195.84C193.597 111.149 192.03 108.929 192.781 106.816L193.805 103.933Z" fill="#006259"/>
<path d="M200.425 114.557C199.366 115.549 196.424 116.967 193.137 114.705" stroke="#006259" stroke-width="1.59292" stroke-linecap="round"/>
<ellipse cx="194.455" cy="91.0995" rx="31.5929" ry="7.16814" transform="rotate(-5.81864 194.455 91.0995)" fill="#FFDB8D"/>
<ellipse cx="193.702" cy="83.7042" rx="18.3186" ry="10.885" transform="rotate(-5.81864 193.702 83.7042)" fill="#FFDB8D"/>
<mask id="mask1_691_3101" style="mask-type:alpha" maskUnits="userSpaceOnUse" x="163" y="72" width="63" height="27">
<path d="M192.598 72.8753C202.663 71.8496 211.316 75.8663 211.926 81.8468C211.98 82.3754 211.967 82.9015 211.896 83.4224C220.127 83.8869 225.639 85.4807 225.885 87.8964C226.287 91.8348 212.54 96.4614 195.182 98.2303C177.824 99.9992 163.427 98.2406 163.025 94.3021C162.779 91.8864 167.856 89.2136 175.824 87.0983C175.649 86.6026 175.532 86.0896 175.478 85.5611C174.868 79.5805 182.533 73.9009 192.598 72.8753Z" fill="#FFDB8D"/>
</mask>
<g mask="url(#mask1_691_3101)">
<path d="M211.96 77.7533C197.107 82.8962 180.405 82.4811 173.911 81.6306L174.423 86.6489C190.04 91.2486 207.053 85.9034 213.607 82.6558L211.96 77.7533Z" fill="#4E0000"/>
</g>
<rect x="213.901" y="128.24" width="2.12389" height="2.65487" rx="1.06195" transform="rotate(3.74468 213.901 128.24)" fill="#4E4E51"/>
<rect x="220.789" y="128.691" width="2.12389" height="2.65487" rx="1.06195" transform="rotate(3.74468 220.789 128.691)" fill="#4E4E51"/>
<rect x="216.348" y="107.116" width="6.90265" height="16.4602" rx="1.06195" transform="rotate(3.74468 216.348 107.116)" stroke="#4E4E51" stroke-width="2.12389"/>
<rect x="211.866" y="110.547" width="15.3982" height="18.5841" rx="2.12389" transform="rotate(3.74468 211.866 110.547)" fill="#FFD422"/>
<rect x="215.333" y="114.499" width="2.12389" height="10.6195" rx="1.06195" transform="rotate(3.74468 215.333 114.499)" fill="#D2B125"/>
<rect x="221.161" y="114.88" width="2.12389" height="10.6195" rx="1.06195" transform="rotate(3.74468 221.161 114.88)" fill="#D2B125"/>
</g>
<defs>
<clipPath id="clip0_691_3101">
<rect width="74.3363" height="74.3363" fill="white" transform="translate(161.168 63.8318)"/>
</clipPath>
</defs>
</svg>
