<svg width="16" height="16" viewBox="0 0 16 16" fill="none" xmlns="http://www.w3.org/2000/svg">
<path d="M3 6.68124C3 9.96204 5.72861 12.6751 6.93636 13.7153C7.10921 13.8642 7.19667 13.9395 7.32562 13.9777C7.42604 14.0074 7.57382 14.0074 7.67424 13.9777C7.80344 13.9394 7.89028 13.8648 8.06378 13.7154C9.27154 12.6752 12 9.96234 12 6.68154C12 5.43995 11.5259 4.24908 10.682 3.37115C9.83808 2.49322 8.69356 2 7.50008 2C6.3066 2 5.16195 2.49329 4.31803 3.37122C3.47411 4.24915 3 5.43965 3 6.68124Z" fill="#B4B4B4"/>
<path d="M6.2143 6.0572C6.2143 6.80411 6.78994 7.4096 7.50003 7.4096C8.21011 7.4096 8.78575 6.80411 8.78575 6.0572C8.78575 5.31029 8.21011 4.7048 7.50003 4.7048C6.78994 4.7048 6.2143 5.31029 6.2143 6.0572Z" fill="#B4B4B4"/>
<circle cx="7.5" cy="6.5" r="1.5" fill="#FFFFFD"/>
</svg>
