<svg width="16" height="16" viewBox="0 0 16 16" fill="none" xmlns="http://www.w3.org/2000/svg">
<path d="M12.7086 9.95841L9.95829 12.7087C9.72769 12.9393 9.61238 13.0543 9.47782 13.1368C9.35853 13.2099 9.22857 13.264 9.09252 13.2966C8.97751 13.3242 8.85706 13.3311 8.66663 13.3328C8.60337 13.3334 8.53238 13.3334 8.45131 13.3334H4.7979C4.05262 13.3334 3.67943 13.3334 3.39449 13.1882C3.14361 13.0604 2.93978 12.8562 2.81195 12.6053C2.66663 12.3201 2.66663 11.9469 2.66663 11.2002V4.80021C2.66663 4.05348 2.66663 3.67983 2.81195 3.39461C2.93978 3.14373 3.14361 2.9399 3.39449 2.81207C3.67971 2.66675 4.05335 2.66675 4.80009 2.66675H11.2001C11.9468 2.66675 12.3197 2.66675 12.6049 2.81207C12.8558 2.9399 13.0603 3.14373 13.1881 3.39461C13.3333 3.67955 13.3333 4.05274 13.3333 4.79802V8.44989C13.3333 8.53162 13.3333 8.6031 13.3327 8.66675C13.3309 8.85705 13.3238 8.97733 13.2962 9.09232C13.2635 9.22837 13.2094 9.35865 13.1363 9.47795C13.0539 9.6125 12.9392 9.72781 12.7086 9.95841Z" fill="#FFEE8C"/>
<path d="M8.66663 13.3328C8.60337 13.3334 8.53238 13.3334 8.45131 13.3334H4.7979C4.05262 13.3334 3.67943 13.3334 3.39449 13.1882C3.14361 13.0604 2.93978 12.8562 2.81195 12.6053C2.66663 12.3201 2.66663 11.9469 2.66663 11.2002V4.80021C2.66663 4.05348 2.66663 3.67983 2.81195 3.39461C2.93978 3.14373 3.14361 2.9399 3.39449 2.81207C3.67971 2.66675 4.05335 2.66675 4.80009 2.66675H11.2001C11.9468 2.66675 12.3197 2.66675 12.6049 2.81207C12.8558 2.9399 13.0603 3.14373 13.1881 3.39461C13.3333 3.67955 13.3333 4.05274 13.3333 4.79802V8.44989C13.3333 8.53162 13.3333 8.6031 13.3327 8.66675M8.66663 13.3328C8.85706 13.3311 8.97751 13.3242 9.09252 13.2966C9.22857 13.264 9.35853 13.2099 9.47782 13.1368C9.61238 13.0543 9.72769 12.9393 9.95829 12.7087L12.7086 9.95841C12.9392 9.72781 13.0539 9.6125 13.1363 9.47795C13.2094 9.35865 13.2635 9.22837 13.2962 9.09232C13.3238 8.97733 13.3309 8.85705 13.3327 8.66675M8.66663 13.3328V9.73348C8.66663 9.36011 8.66663 9.17329 8.73929 9.03068C8.8032 8.90524 8.90512 8.80333 9.03056 8.73941C9.17317 8.66675 9.35966 8.66675 9.73303 8.66675H13.3327" stroke="#FFC32A" stroke-linecap="round" stroke-linejoin="round"/>
</svg>
