<svg width="313" height="320" viewBox="0 0 313 320" fill="none" xmlns="http://www.w3.org/2000/svg">
<path d="M84.253 268.913C19.0864 268.58 -53.1469 251.113 179.253 183.913C310.753 150.747 369.253 131.413 115.253 79.9132" stroke="#FFCEAA" stroke-width="2" stroke-linecap="round" stroke-dasharray="6 6"/>
<path d="M107.429 70.9285C107.245 70.0871 102 73.413 102 73.413L88.955 65.3949C88.955 65.3949 102.238 60.2201 100.369 59.5666C98.4998 58.9131 80.0006 61.8852 80.0006 61.8852L69.3862 57.0547C58.3388 55.4941 60.7415 59.2129 63.3237 61.2674L77.6985 68.186L79.3424 73.786C79.3424 73.786 79.9727 79.3589 80.9863 79.386C81.9998 79.4131 84.5526 70.9284 84.5526 70.9284L100.361 77.1806C100.361 77.1806 100.014 79.9033 100.757 80.6581C101.5 81.413 103.342 76.8413 103.342 76.8413C103.342 76.8413 106.674 77.5844 107.429 77.3825C108.185 77.1806 105.103 74.6279 105.103 74.6279C105.103 74.6279 107.614 71.7699 107.429 70.9285Z" fill="#FFCEAA"/>
<path d="M153.862 75.4132C153.862 75.4132 151.246 42.2858 213.915 50.7523C213.915 50.7523 211.371 77.6759 153.862 75.4132Z" fill="#009245" stroke="#006259" stroke-width="7" stroke-miterlimit="10"/>
<ellipse cx="154.5" cy="155" rx="91.5" ry="77" fill="#006259"/>
<ellipse cx="154.6" cy="154.959" rx="84.6" ry="70.2" fill="#FF9D1F"/>
<path d="M146.439 140.945C149.907 131.184 163.71 131.184 167.178 140.945L170.65 150.717C173.195 157.881 167.883 165.405 160.281 165.405H153.337C145.734 165.405 140.422 157.881 142.967 150.717L146.439 140.945Z" fill="#006259"/>
<path d="M168.899 176.992C165.306 180.354 155.336 185.162 144.191 177.495M135 144.5C130.77 159.029 120.64 166.614 110.292 145.003M201.208 143.997C196.978 158.526 186.848 166.111 176.5 144.5" stroke="#006259" stroke-width="5.4" stroke-linecap="round"/>
<path fill-rule="evenodd" clip-rule="evenodd" d="M104.428 203.895C130.548 187.224 189.327 185.144 211.218 207.022C214.987 229.506 206.362 275.471 158.074 273.869C136.181 275.433 94.8023 263.627 104.428 203.895Z" fill="#FFDB8D" stroke="#006259" stroke-width="7" stroke-linejoin="round"/>
<path d="M202 211.167C202 218.899 181.18 224 157.459 224C133.738 224 113 217.732 113 210C113 202.268 133.738 196 157.459 196C181.18 196 202 203.435 202 211.167Z" fill="#CAAF77"/>
<path d="M157.598 201C178.46 201 197.076 206.957 201.261 213.841C197.077 220.052 178.46 224 157.598 224C136.713 224 118.143 219.14 114 212.701C118.144 206.033 136.714 201 157.598 201Z" fill="#4E0000"/>
<path d="M105.263 242.763C113.053 238.232 115.452 225.609 108.649 213.913C101.846 202.217 89.6878 198.063 81.8977 202.594C74.1076 207.125 71.7077 219.748 78.5108 231.444C85.314 243.14 97.4732 247.294 105.263 242.763Z" fill="#FF9D1F" stroke="#006259" stroke-width="5.6" stroke-linejoin="round"/>
<path d="M207.897 242.763C200.107 238.232 197.708 225.609 204.511 213.913C211.314 202.217 223.472 198.063 231.262 202.594C239.053 207.125 241.452 219.748 234.649 231.444C227.846 243.14 215.687 247.294 207.897 242.763Z" fill="#FF9D1F" stroke="#006259" stroke-width="5.6" stroke-linejoin="round"/>
<path d="M138.702 205.018C139.147 204.61 137.89 203.875 138.28 203.338C138.661 202.808 139.366 202.888 139.445 202.204L139.524 203.171C139.519 203.163 139.514 203.155 139.509 203.147C139.133 202.541 139.313 201.689 138.97 201.496C138.638 201.298 139.33 200.959 139.024 200.605C138.727 200.247 138.738 199.947 138.804 199.491C138.881 199.03 138.566 197.857 138.233 197.527C137.916 197.189 138.049 196.587 137.984 196.289C137.967 196.194 137.963 196.116 137.965 196.053C137.966 196.027 137.983 196.007 138.004 195.998C138.004 195.998 138.004 195.998 138.004 195.998C138.03 195.987 138.062 195.991 138.078 196.018C138.157 196.146 138.292 196.329 138.524 196.514C138.972 196.852 138.748 197.009 139.181 197.541C139.619 198.071 140.157 198.268 140.325 199.044C140.453 199.838 141.578 199.539 141.517 200.765C141.447 201.555 141.895 201.688 142.439 201.892L142.671 202.607L142.529 202.996C142.701 203.283 142.878 203.607 142.875 204.02C142.88 205.151 141.788 206.297 141.686 206.952C141.675 207.031 141.664 207.114 141.652 207.2C141.571 207.825 141.47 208.609 141.069 209.355C140.887 209.695 140.797 210.095 140.707 210.509L140.519 209.154C140.859 209.689 141.211 210.25 141.313 210.906C141.482 212.002 141.813 213.498 141.955 214.195C142.092 214.896 142.155 215.049 142.533 215.58C142.751 215.885 142.922 216.38 143.003 216.835C143.044 217.064 142.94 217.067 142.777 216.908C142.537 216.675 142.441 216.426 142.212 216.367C141.749 216.254 141.518 216.226 141.45 215.782C141.396 215.33 140.822 215.435 140.718 215.214C140.618 214.991 140.93 214.814 139.952 213.95C138.955 213.097 138.462 212.598 138.116 212.257C137.872 212.022 137.695 211.463 137.436 210.949L137.105 210.472L137.252 209.622C137.329 209.38 137.387 209.133 137.387 208.892C137.384 208.191 137.77 206.949 137.797 206.21C137.8 206.116 137.797 206.03 137.786 205.954C137.688 205.282 138.255 205.426 138.702 205.018Z" fill="#E8E5DE"/>
<path d="M173.702 204.018C174.147 203.61 172.89 202.875 173.28 202.338C173.661 201.808 174.366 201.888 174.445 201.204L174.524 202.171C174.519 202.163 174.514 202.155 174.509 202.147C174.133 201.541 174.313 200.689 173.97 200.496C173.638 200.298 174.33 199.959 174.024 199.605C173.727 199.247 173.738 198.947 173.804 198.491C173.881 198.03 173.566 196.857 173.233 196.527C172.916 196.189 173.049 195.587 172.984 195.289C172.967 195.194 172.963 195.116 172.965 195.053C172.966 195.027 172.983 195.007 173.004 194.998C173.004 194.998 173.004 194.998 173.004 194.998C173.03 194.987 173.062 194.991 173.078 195.018C173.157 195.146 173.292 195.329 173.524 195.514C173.972 195.852 173.748 196.009 174.181 196.541C174.619 197.071 175.157 197.268 175.325 198.044C175.453 198.838 176.578 198.539 176.517 199.765C176.447 200.555 176.895 200.688 177.439 200.892L177.671 201.607L177.529 201.996C177.701 202.283 177.878 202.607 177.875 203.02C177.88 204.151 176.788 205.297 176.686 205.952C176.675 206.031 176.664 206.114 176.652 206.2C176.571 206.825 176.47 207.609 176.069 208.355C175.887 208.695 175.797 209.095 175.707 209.509L175.519 208.154C175.859 208.689 176.211 209.25 176.313 209.906C176.482 211.002 176.813 212.498 176.955 213.195C177.092 213.896 177.155 214.049 177.533 214.58C177.751 214.885 177.922 215.38 178.003 215.835C178.044 216.064 177.94 216.067 177.777 215.908C177.537 215.675 177.441 215.426 177.212 215.367C176.749 215.254 176.518 215.226 176.45 214.782C176.396 214.33 175.822 214.435 175.718 214.214C175.618 213.991 175.93 213.814 174.952 212.95C173.955 212.097 173.462 211.598 173.116 211.257C172.872 211.022 172.695 210.463 172.436 209.949L172.105 209.472L172.252 208.622C172.329 208.38 172.387 208.133 172.387 207.892C172.384 207.191 172.77 205.949 172.797 205.21C172.8 205.116 172.797 205.03 172.786 204.954C172.688 204.282 173.255 204.426 173.702 204.018Z" fill="#E8E5DE"/>
<path d="M156.134 196.807C156.604 196.305 155.368 195.495 155.788 194.843C156.2 194.2 156.91 194.263 157.023 193.454L157.103 194.427C157.097 194.418 157.091 194.408 157.086 194.398C156.652 193.669 156.776 192.693 156.407 192.446C156.05 192.193 156.738 191.846 156.397 191.414C156.064 190.979 156.053 190.631 156.088 190.106C156.133 189.577 155.722 188.194 155.353 187.788C155.001 187.375 155.094 186.685 155.005 186.334C154.981 186.223 154.971 186.132 154.968 186.059C154.967 186.029 154.983 186.008 155.004 185.998C155.004 185.998 155.004 185.998 155.004 185.998C155.03 185.987 155.064 185.994 155.082 186.026C155.173 186.18 155.326 186.402 155.579 186.632C156.065 187.055 155.846 187.222 156.332 187.869C156.823 188.513 157.393 188.779 157.623 189.691C157.814 190.62 158.952 190.35 158.979 191.769C158.966 192.682 159.437 192.866 160.014 193.139L160.253 193.83L160.105 194.252C160.265 194.582 160.428 194.956 160.406 195.444C160.356 196.779 159.195 198.179 159.06 198.957C159.045 199.051 159.03 199.149 159.014 199.251C158.901 199.993 158.761 200.922 158.319 201.819C158.12 202.227 158.009 202.701 157.898 203.191L157.708 201.827C158.113 202.467 158.532 203.139 158.698 203.9C158.971 205.166 159.449 206.902 159.659 207.711C159.864 208.522 159.943 208.703 160.387 209.339C160.642 209.705 160.864 210.285 160.988 210.812C161.051 211.077 160.943 211.072 160.758 210.877C160.486 210.592 160.363 210.299 160.118 210.214C159.623 210.047 159.378 209.996 159.267 209.484C159.171 208.963 158.579 209.038 158.451 208.777C158.326 208.513 158.637 208.336 157.536 207.27C156.416 206.216 155.855 205.606 155.463 205.188C155.185 204.899 154.95 204.243 154.632 203.632L154.289 203.128L154.446 202.297C154.534 202.011 154.604 201.719 154.616 201.437C154.647 200.61 155.097 199.126 155.161 198.254C155.168 198.142 155.169 198.041 155.161 197.951C155.095 197.163 155.662 197.308 156.134 196.807Z" fill="#E8E5DE"/>
</svg>
