<svg width="7" height="16" viewBox="0 0 7 16" fill="none" xmlns="http://www.w3.org/2000/svg">
<path d="M3.5 4.5C4.22187 4.5 4.8125 3.825 4.8125 3C4.8125 2.175 4.22187 1.5 3.5 1.5C2.77812 1.5 2.1875 2.175 2.1875 3C2.1875 3.825 2.77812 4.5 3.5 4.5ZM3.5 6.5C2.77812 6.5 2.1875 7.175 2.1875 8C2.1875 8.825 2.77812 9.5 3.5 9.5C4.22187 9.5 4.8125 8.825 4.8125 8C4.8125 7.175 4.22187 6.5 3.5 6.5ZM3.5 11.5C2.77812 11.5 2.1875 12.175 2.1875 13C2.1875 13.825 2.77812 14.5 3.5 14.5C4.22187 14.5 4.8125 13.825 4.8125 13C4.8125 12.175 4.22187 11.5 3.5 11.5Z" fill="#5D5D5D"/>
</svg>
