<svg width="80" height="80" viewBox="0 0 80 80" fill="none" xmlns="http://www.w3.org/2000/svg">
<path d="M40.4975 19.052C40.4975 19.052 39.6671 8.53533 59.5619 11.2231C59.5619 11.2231 58.7543 19.7703 40.4975 19.052Z" fill="#7E7E7E" stroke="#575757" stroke-width="2.85714" stroke-miterlimit="10"/>
<ellipse cx="40.0001" cy="44.1774" rx="30.2857" ry="25.7143" fill="#575757"/>
<ellipse cx="40.0001" cy="44.1776" rx="26.8571" ry="22.2857" fill="#BFBFBF"/>
<circle cx="50.8572" cy="41.8919" r="5.14286" fill="#FFEED9"/>
<circle cx="50.0001" cy="41.6063" r="4.28571" fill="#575757"/>
<circle cx="30.2858" cy="41.8919" r="5.14286" fill="#FFEED9"/>
<circle cx="29.4288" cy="41.6063" r="4.28571" fill="#575757"/>
<path d="M46.8572 37.3203H54.8572" stroke="#575757" stroke-width="1.71429" stroke-linecap="round"/>
<path d="M26.2858 37.3203H34.2858" stroke="#575757" stroke-width="1.71429" stroke-linecap="round"/>
<path d="M37.4094 39.7283C38.5103 36.6298 42.8922 36.6298 43.9931 39.7283L45.0953 42.8306C45.9033 45.1048 44.2169 47.4936 41.8035 47.4936H39.599C37.1856 47.4936 35.4992 45.1048 36.3071 42.8306L37.4094 39.7283Z" fill="#575757"/>
<path d="M46.4431 49.7144C45.7314 51.1049 43.2698 53.6127 39.1166 52.5203" stroke="#575757" stroke-width="1.71429" stroke-linecap="round"/>
<ellipse cx="30.5174" cy="42.4829" rx="7.66019" ry="5.33984" fill="black"/>
<ellipse cx="50.3772" cy="42.4829" rx="7.66019" ry="5.33984" fill="black"/>
<path d="M37.0427 40.9124H44.9866" stroke="black" stroke-width="1.71429" stroke-linecap="round"/>
<mask id="mask0_863_2836" style="mask-type:alpha" maskUnits="userSpaceOnUse" x="22" y="37" width="37" height="11">
<ellipse cx="30.5174" cy="42.4829" rx="7.66019" ry="5.33984" fill="black"/>
<ellipse cx="50.3772" cy="42.4829" rx="7.66019" ry="5.33984" fill="black"/>
<path d="M37.0427 40.9124H44.9866" stroke="black" stroke-width="1.71429" stroke-linecap="round"/>
</mask>
<g mask="url(#mask0_863_2836)">
<rect opacity="0.4" width="3.1251" height="31.798" transform="matrix(0.764532 -0.644585 0.767411 0.641155 19.1146 32.8752)" fill="#D9D9D9"/>
<rect opacity="0.4" width="3.1251" height="31.798" transform="matrix(0.764532 -0.644585 0.767411 0.641155 40.8215 33.5034)" fill="#D9D9D9"/>
<rect opacity="0.4" width="2.07215" height="31.798" transform="matrix(0.764532 -0.644585 0.767411 0.641155 16.869 35.5176)" fill="#D9D9D9"/>
<rect opacity="0.4" width="2.07215" height="31.798" transform="matrix(0.764532 -0.644585 0.767411 0.641155 39.2042 36.146)" fill="#D9D9D9"/>
</g>
<path d="M61.161 21.5746C61.3084 21.0029 62.1202 21.0029 62.2676 21.5746L63.6466 26.9221C63.6824 27.0611 63.7692 27.1815 63.8897 27.2594L67.8291 29.806C68.1774 30.0311 68.1774 30.5406 67.8291 30.7657L63.8897 33.3124C63.7692 33.3902 63.6824 33.5106 63.6466 33.6496L62.2676 38.9972C62.1202 39.5688 61.3084 39.5688 61.161 38.9972L59.7821 33.6496C59.7462 33.5106 59.6594 33.3902 59.5389 33.3124L55.5995 30.7657C55.2513 30.5406 55.2513 30.0311 55.5995 29.806L59.5389 27.2594C59.6594 27.1815 59.7462 27.0611 59.7821 26.9221L61.161 21.5746Z" fill="#575757"/>
</svg>
