<svg width="80" height="80" viewBox="0 0 80 80" fill="none" xmlns="http://www.w3.org/2000/svg">
<path d="M40.4974 19.052C40.4974 19.052 39.667 8.53533 59.5618 11.2231C59.5618 11.2231 58.7542 19.7703 40.4974 19.052Z" fill="#7E7E7E" stroke="#575757" stroke-width="2.85714" stroke-miterlimit="10"/>
<ellipse cx="40.0001" cy="44.1774" rx="30.2857" ry="25.7143" fill="#575757"/>
<ellipse cx="40.0001" cy="44.1776" rx="26.8571" ry="22.2857" fill="#B3B3B3"/>
<circle cx="50.8572" cy="41.8919" r="5.14286" fill="#FFEED9"/>
<circle cx="50.0001" cy="41.6063" r="4.28571" fill="#575757"/>
<circle cx="30.2858" cy="41.8919" r="5.14286" fill="#FFEED9"/>
<circle cx="29.4288" cy="41.6063" r="4.28571" fill="#575757"/>
<path d="M46.8572 37.3203H54.8572" stroke="#575757" stroke-width="1.71429" stroke-linecap="round"/>
<path d="M26.2858 37.3203H34.2858" stroke="#575757" stroke-width="1.71429" stroke-linecap="round"/>
<path d="M37.4094 39.7283C38.5103 36.6298 42.8922 36.6298 43.9931 39.7283L45.0953 42.8306C45.9033 45.1048 44.2169 47.4936 41.8035 47.4936H39.599C37.1856 47.4936 35.4992 45.1048 36.3071 42.8306L37.4094 39.7283Z" fill="#575757"/>
<path d="M44.534 51.1418C43.3936 52.2093 40.2282 53.7356 36.6901 51.3016" stroke="#575757" stroke-width="1.71429" stroke-linecap="round"/>
</svg>
