<svg width="80" height="80" viewBox="0 0 80 80" fill="none" xmlns="http://www.w3.org/2000/svg">
<path d="M40.4972 19.0519C40.4972 19.0519 39.6669 8.5352 59.5617 11.223C59.5617 11.223 58.7541 19.7702 40.4972 19.0519Z" fill="#7E7E7E" stroke="#6A6A6A" stroke-width="2.85714" stroke-miterlimit="10"/>
<ellipse cx="39.9999" cy="44.1774" rx="30.2857" ry="25.7143" fill="#6A6A6A"/>
<ellipse cx="40" cy="44.1774" rx="26.8571" ry="22.2857" fill="#999999"/>
<circle cx="50.8571" cy="41.8917" r="5.14286" fill="#F0F0F0"/>
<circle cx="50.0001" cy="41.606" r="4.28571" fill="#575757"/>
<circle cx="30.2857" cy="41.8917" r="5.14286" fill="#F0F0F0"/>
<circle cx="29.4285" cy="41.606" r="4.28571" fill="#575757"/>
<path d="M46.8571 37.3203H54.8571" stroke="#575757" stroke-width="1.71429" stroke-linecap="round"/>
<path d="M26.2856 37.3203H34.2856" stroke="#575757" stroke-width="1.71429" stroke-linecap="round"/>
<path d="M37.4093 39.7283C38.5101 36.6298 42.8921 36.6298 43.9929 39.7283L45.0952 42.8306C45.9032 45.1048 44.2167 47.4936 41.8033 47.4936H39.5989C37.1855 47.4936 35.499 45.1048 36.307 42.8306L37.4093 39.7283Z" fill="#575757"/>
<path d="M36.9899 53.0757C38.1048 51.9817 41.2333 50.3813 44.8278 52.7313" stroke="#575757" stroke-width="2" stroke-linecap="round"/>
<g filter="url(#filter0_g_797_2785)">
<path d="M69.5199 33.8571H69.5193C70.0058 34.7398 70.2856 35.7639 70.2856 36.8571C70.2856 40.1708 67.7273 42.8571 64.5713 42.8571C61.4154 42.8571 58.8571 40.1708 58.8571 36.8571C58.8571 35.7639 59.1369 34.7398 59.6234 33.8571H59.6228L64.5713 22.8571L69.5199 33.8571Z" fill="#575757"/>
</g>
<defs>
<filter id="filter0_g_797_2785" x="58.5713" y="22.5714" width="12" height="20.5714" filterUnits="userSpaceOnUse" color-interpolation-filters="sRGB">
<feFlood flood-opacity="0" result="BackgroundImageFix"/>
<feBlend mode="normal" in="SourceGraphic" in2="BackgroundImageFix" result="shape"/>
<feTurbulence type="fractalNoise" baseFrequency="8.7500009536743164 8.7500009536743164" numOctaves="3" seed="6888" />
<feDisplacementMap in="shape" scale="0.57142853736877441" xChannelSelector="R" yChannelSelector="G" result="displacedImage" width="100%" height="100%" />
<feMerge result="effect1_texture_797_2785">
<feMergeNode in="displacedImage"/>
</feMerge>
</filter>
</defs>
</svg>
