<svg width="32" height="32" viewBox="0 0 32 32" fill="none" xmlns="http://www.w3.org/2000/svg">
<circle cx="16" cy="16" r="16" fill="#FFCEAA"/>
<path d="M16 7.75C18.3313 7.75 20.2225 9.4063 20.248 11.458C22.5017 11.9887 24 12.9284 24 14C24 15.6569 20.4183 17 16 17C11.5817 17 8 15.6569 8 14C8 12.9286 9.49781 11.9887 11.751 11.458C11.7765 9.40629 13.6687 7.75 16 7.75Z" fill="white"/>
<path d="M14.0016 22.25C11.9252 20.25 9.01818 15.35 14.0016 11.75V22.25Z" fill="white"/>
<path d="M13.8457 21.75H17.9986V11.8022C16.026 10.8022 14.4081 11.3855 13.8457 11.8022V21.75Z" fill="white"/>
<path d="M17.9984 22.25C20.0748 20.25 22.9818 15.35 17.9984 11.75V22.25Z" fill="white"/>
<path d="M18.4727 23.75C18.4727 24.75 21.1047 25.4167 22.2949 25.625C24.5342 26.1078 25.7666 27.116 26.4004 28.1396C23.6006 30.5454 19.9595 32 15.9785 32C12.0047 31.9999 8.37002 30.5504 5.57227 28.1523C6.2036 27.1242 7.43771 26.1099 9.68652 25.625C10.8768 25.4166 13.5293 24.7499 13.5293 23.75V20.5H18.4727V23.75Z" fill="white"/>
</svg>
