<svg width="274" height="308" viewBox="0 0 274 308" fill="none" xmlns="http://www.w3.org/2000/svg">
<path d="M65.253 217C0.08638 216.667 -72.1469 199.2 160.253 132C291.753 98.8333 350.253 79.5 96.2531 28" stroke="#FFCEAA" stroke-width="2" stroke-linecap="round" stroke-dasharray="6 6"/>
<path d="M200.262 137.614C200.262 137.614 197.646 104.487 260.315 112.953C260.315 112.953 257.771 139.877 200.262 137.614Z" fill="#009245" stroke="#006259" stroke-width="9" stroke-miterlimit="10"/>
<ellipse cx="150.5" cy="206" rx="91.5" ry="77" fill="#006259"/>
<ellipse cx="150.6" cy="205.959" rx="84.6" ry="70.2" fill="#FF9D1F"/>
<circle cx="184.8" cy="198.759" r="16.2" fill="#FFEED9"/>
<circle cx="182.1" cy="197.859" r="13.5" fill="#006259"/>
<circle cx="120" cy="198.759" r="16.2" fill="#FFEED9"/>
<circle cx="117.3" cy="197.859" r="13.5" fill="#006259"/>
<path d="M172.2 184.359H197.4" stroke="#006259" stroke-width="5.4" stroke-linecap="round"/>
<path d="M107.4 184.359H132.6" stroke="#006259" stroke-width="5.4" stroke-linecap="round"/>
<path d="M142.439 191.945C145.907 182.184 159.71 182.184 163.178 191.945L166.65 201.717C169.195 208.881 163.883 216.405 156.281 216.405H149.337C141.734 216.405 136.422 208.881 138.967 201.717L142.439 191.945Z" fill="#006259"/>
<path d="M164.899 227.992C161.306 231.354 151.336 236.162 140.191 228.495" stroke="#006259" stroke-width="5.4" stroke-linecap="round"/>
<ellipse cx="144.644" cy="148.438" rx="107.1" ry="24.3" transform="rotate(-5.81864 144.644 148.438)" fill="#FFDB8D"/>
<ellipse cx="142.089" cy="123.368" rx="62.1" ry="36.9" transform="rotate(-5.81864 142.089 123.368)" fill="#FFDB8D"/>
<mask id="mask0_807_2765" style="mask-type:alpha" maskUnits="userSpaceOnUse" x="38" y="86" width="214" height="89">
<path d="M138.348 86.6579C172.468 83.1809 201.802 96.7973 203.868 117.072C204.051 118.862 204.013 120.644 203.772 122.408C231.673 123.983 250.357 129.391 251.191 137.58C252.552 150.931 205.952 166.616 147.107 172.612C88.2621 178.609 39.4563 172.647 38.0956 159.295C37.2611 151.106 54.4686 142.041 81.4777 134.87C80.8856 133.191 80.4904 131.453 80.308 129.663C78.2421 109.389 104.228 90.1349 138.348 86.6579Z" fill="#FFDB8D"/>
</mask>
<g mask="url(#mask0_807_2765)">
<path d="M203.985 103.194C153.632 120.629 97.0145 119.221 75 116.338L76.7336 133.35C129.674 148.943 187.349 130.823 209.569 119.814L203.985 103.194Z" fill="#4E0000"/>
</g>
<rect x="210.565" y="274.344" width="7.2" height="9" rx="3.6" transform="rotate(3.74468 210.565 274.344)" fill="#4E4E51"/>
<rect x="233.915" y="275.872" width="7.2" height="9" rx="3.6" transform="rotate(3.74468 233.915 275.872)" fill="#4E4E51"/>
<rect x="218.859" y="202.733" width="23.4" height="55.8" rx="3.6" transform="rotate(3.74468 218.859 202.733)" stroke="#4E4E51" stroke-width="7.2"/>
<rect x="203.667" y="214.365" width="52.2" height="63" rx="7.2" transform="rotate(3.74468 203.667 214.365)" fill="#FFD422"/>
<rect x="215.417" y="227.761" width="7.2" height="36" rx="3.6" transform="rotate(3.74468 215.417 227.761)" fill="#D2B125"/>
<rect x="235.175" y="229.055" width="7.2" height="36" rx="3.6" transform="rotate(3.74468 235.175 229.055)" fill="#D2B125"/>
<path d="M88.4295 19.0153C88.2448 18.1739 83 21.4998 83 21.4998L69.9551 13.4817C69.9551 13.4817 83.2385 8.3069 81.3692 7.65342C79.4999 6.99994 61.0007 9.97195 61.0007 9.97195L50.3863 5.14148C39.3389 3.58091 41.7416 7.2997 44.3239 9.35416L58.6986 16.2728L60.3425 21.8728C60.3425 21.8728 60.9728 27.4457 61.9864 27.4728C62.9999 27.4999 65.5527 19.0152 65.5527 19.0152L81.3613 25.2674C81.3613 25.2674 81.0143 27.9901 81.7571 28.7449C82.5 29.4998 84.342 24.9281 84.342 24.9281C84.342 24.9281 87.6742 25.6711 88.4295 25.4693C89.1847 25.2674 86.103 22.7147 86.103 22.7147C86.103 22.7147 88.6142 19.8567 88.4295 19.0153Z" fill="#FFCEAA"/>
</svg>
