<svg width="14" height="14" viewBox="0 0 14 14" fill="none" xmlns="http://www.w3.org/2000/svg">
<path d="M8.43909 2.62459L7.72686 2.01763C7.30813 1.66079 6.69187 1.66079 6.27314 2.01763L5.56083 2.6246C5.38139 2.77752 5.15828 2.86989 4.92327 2.88864L3.99119 2.96298C3.44278 3.00675 3.0066 3.44224 2.96284 3.99065L2.88821 4.92347C2.86946 5.15848 2.7777 5.38149 2.62478 5.56092L2.01755 6.27328C1.66071 6.69201 1.66087 7.30776 2.01771 7.72649L2.6244 8.43885C2.77732 8.61829 2.86997 8.8413 2.88873 9.0763L2.96335 10.0091C3.00711 10.5575 3.44204 10.993 3.99045 11.0368L4.92356 11.1111C5.15856 11.1299 5.38157 11.2223 5.56101 11.3752L6.27308 11.9822C6.69181 12.339 7.30813 12.3389 7.72686 11.9821L8.43894 11.3751C8.61837 11.2222 8.84138 11.13 9.07639 11.1112L10.0095 11.0368C10.5579 10.993 10.9928 10.5574 11.0366 10.009L11.1112 9.07624C11.13 8.84124 11.2226 8.61804 11.3755 8.4386L11.9822 7.72646C12.3391 7.30773 12.339 6.69179 11.9822 6.27306L11.3755 5.56103C11.2226 5.38159 11.1298 5.15848 11.111 4.92347L11.0369 3.99054C10.9931 3.44213 10.5575 3.0068 10.0091 2.96304L9.07633 2.8887C8.84132 2.86995 8.61852 2.7775 8.43909 2.62459Z" fill="#F78938"/>
<path d="M8.75 5.83325L6.41667 8.16658L5.25 6.99992" stroke="white" stroke-linecap="round" stroke-linejoin="round"/>
</svg>
