<svg width="313" height="320" viewBox="0 0 313 320" fill="none" xmlns="http://www.w3.org/2000/svg">
<path d="M84.253 268.913C19.0864 268.58 -53.1469 251.113 179.253 183.913C310.753 150.747 369.253 131.413 115.253 79.9132" stroke="#FFCEAA" stroke-width="2" stroke-linecap="round" stroke-dasharray="6 6"/>
<path d="M107.429 70.9285C107.245 70.0871 102 73.413 102 73.413L88.955 65.3949C88.955 65.3949 102.238 60.2201 100.369 59.5666C98.4998 58.9131 80.0006 61.8852 80.0006 61.8852L69.3862 57.0547C58.3388 55.4941 60.7415 59.2129 63.3237 61.2674L77.6985 68.186L79.3424 73.786C79.3424 73.786 79.9727 79.3589 80.9863 79.386C81.9998 79.4131 84.5526 70.9284 84.5526 70.9284L100.361 77.1806C100.361 77.1806 100.014 79.9033 100.757 80.6581C101.5 81.413 103.342 76.8413 103.342 76.8413C103.342 76.8413 106.674 77.5844 107.429 77.3825C108.185 77.1806 105.103 74.6279 105.103 74.6279C105.103 74.6279 107.614 71.7699 107.429 70.9285Z" fill="#FFCEAA"/>
<path d="M155.862 75.4133C155.862 75.4133 153.246 42.2859 215.915 50.7524C215.915 50.7524 213.371 77.6759 155.862 75.4133Z" fill="#009245" stroke="#006259" stroke-width="7" stroke-miterlimit="10"/>
<ellipse cx="156.5" cy="155" rx="91.5" ry="77" fill="#006259"/>
<ellipse cx="156.6" cy="154.959" rx="84.6" ry="70.2" fill="#FF9D1F"/>
<circle cx="190.8" cy="147.76" r="16.2" fill="#FFEED9"/>
<circle cx="188.1" cy="146.859" r="13.5" fill="#006259"/>
<circle cx="126" cy="147.76" r="16.2" fill="#FFEED9"/>
<circle cx="123.3" cy="146.859" r="13.5" fill="#006259"/>
<path d="M178.629 133.621L202.97 127.098" stroke="#006259" stroke-width="5.4" stroke-linecap="round"/>
<path d="M111.995 127.017L136.337 133.539" stroke="#006259" stroke-width="5.4" stroke-linecap="round"/>
<path d="M148.439 140.945C151.907 131.184 165.71 131.184 169.178 140.945L172.65 150.717C175.195 157.881 169.883 165.406 162.281 165.406H155.337C147.734 165.406 142.422 157.881 144.967 150.717L148.439 140.945Z" fill="#006259"/>
<path d="M174.588 168C172.613 172.507 165.347 180.857 152.081 178.207" stroke="#006259" stroke-width="5.4" stroke-linecap="round"/>
<ellipse cx="123.811" cy="146.689" rx="26.8107" ry="18.6895" fill="black"/>
<ellipse cx="193.32" cy="146.689" rx="26.8107" ry="18.6895" fill="black"/>
<path d="M146.649 141.193H174.453" stroke="black" stroke-width="6" stroke-linecap="round"/>
<mask id="mask0_1675_4210" style="mask-type:alpha" maskUnits="userSpaceOnUse" x="97" y="128" width="124" height="38">
<ellipse cx="123.811" cy="146.689" rx="26.8107" ry="18.6895" fill="black"/>
<ellipse cx="193.32" cy="146.689" rx="26.8107" ry="18.6895" fill="black"/>
<path d="M146.649 141.193H174.453" stroke="black" stroke-width="6" stroke-linecap="round"/>
</mask>
<g mask="url(#mask0_1675_4210)">
<rect opacity="0.4" width="10.9379" height="111.293" transform="matrix(0.764532 -0.644585 0.767411 0.641155 83.9009 113.063)" fill="#D9D9D9"/>
<rect opacity="0.4" width="10.9379" height="111.293" transform="matrix(0.764532 -0.644585 0.767411 0.641155 159.875 115.261)" fill="#D9D9D9"/>
<rect opacity="0.4" width="7.25251" height="111.293" transform="matrix(0.764532 -0.644585 0.767411 0.641155 76.0415 122.311)" fill="#D9D9D9"/>
<rect opacity="0.4" width="7.25251" height="111.293" transform="matrix(0.764532 -0.644585 0.767411 0.641155 154.214 124.51)" fill="#D9D9D9"/>
</g>
<path d="M203.5 273C203.5 273.96 203.106 274.877 202.41 275.538C201.714 276.199 200.777 276.545 199.818 276.495L144.589 273.621C144.355 273.609 144.123 273.573 143.896 273.515L111.561 265.18C110.065 264.794 108.999 263.474 108.937 261.932L105.503 177.142C105.459 176.061 105.918 175.021 106.744 174.324C107.571 173.627 108.673 173.352 109.73 173.577L151.247 182.431L200.204 185.29C202.055 185.398 203.5 186.931 203.5 188.784V273Z" fill="#FFDB8D" stroke="#006259" stroke-width="7" stroke-linejoin="round"/>
<path d="M144.309 270C141.79 265.837 139.252 256.631 149.25 253.116C152.64 249.8 155.062 241.135 137.625 232.993C136.269 229.832 134.37 222.446 137.625 218.19C134.041 215.261 126.697 209.124 126 208.014M152.737 244.558C154.868 241.32 162.212 235.26 174.534 236.925C180.443 234.15 189.123 227.118 176.568 221.197C167.171 223.664 150.761 223.279 160.293 202" stroke="#006259" stroke-width="5.6" stroke-linecap="round" stroke-linejoin="round"/>
<path d="M169.937 242.608C170.315 249.471 176.632 254.815 179.409 256.845C179.807 257.135 180.008 257.282 180.296 257.346C180.52 257.396 180.845 257.378 181.063 257.304C181.343 257.208 181.525 257.042 181.89 256.708C184.427 254.386 190.118 248.38 189.74 241.517C189.597 238.919 188.416 236.486 186.458 234.752C184.5 233.017 181.925 232.125 179.298 232.269C176.672 232.414 174.211 233.585 172.455 235.524C170.699 237.463 169.793 240.01 169.937 242.608Z" fill="#F78938"/>
<path d="M176.937 240.912C177.023 242.475 178.36 243.672 179.922 243.585C181.485 243.499 182.681 242.163 182.595 240.6C182.509 239.038 181.173 237.841 179.61 237.927C178.048 238.014 176.851 239.35 176.937 240.912Z" fill="#F78938"/>
<path d="M179.598 237.711C181.28 237.618 182.718 238.907 182.811 240.588C182.904 242.27 181.616 243.709 179.934 243.801C178.252 243.894 176.813 242.606 176.721 240.924C176.628 239.242 177.916 237.804 179.598 237.711Z" fill="white" stroke="white"/>
<path d="M204.897 227.763C197.107 223.232 194.708 210.609 201.511 198.913C208.314 187.217 220.472 183.063 228.262 187.594C236.053 192.125 238.452 204.748 231.649 216.444C224.846 228.14 212.687 232.294 204.897 227.763Z" fill="#FF9D1F" stroke="#006259" stroke-width="5.6" stroke-linejoin="round"/>
<path d="M107.263 227.763C115.053 223.232 117.452 210.609 110.649 198.913C103.846 187.217 91.6878 183.063 83.8977 187.594C76.1076 192.125 73.7077 204.748 80.5108 216.444C87.314 228.14 99.4732 232.294 107.263 227.763Z" fill="#FF9D1F" stroke="#006259" stroke-width="5.6" stroke-linejoin="round"/>
</svg>
