<svg width="24" height="24" viewBox="0 0 24 24" fill="none" xmlns="http://www.w3.org/2000/svg">
<path d="M6.40002 8.11876V15.5842C6.40002 16.6554 6.40002 17.191 6.59054 17.5187C6.94364 18.1263 7.71749 18.4754 8.51278 18.3862C8.94187 18.338 9.47035 18.0409 10.5273 17.4467L10.5299 17.4453C10.9488 17.2098 11.1583 17.092 11.3774 17.0267C11.78 16.9067 12.2191 16.9067 12.6216 17.0267C12.8412 17.0921 13.0516 17.2104 13.4722 17.4468C14.5292 18.041 15.0582 18.3379 15.4873 18.3861C16.2826 18.4753 17.0564 18.1263 17.4095 17.5187C17.6 17.191 17.6 16.6553 17.6 15.5842V8.11618C17.6 7.2363 17.6 6.79571 17.3968 6.45931C17.2178 6.16312 16.9315 5.92249 16.5803 5.77157C16.181 5.6 15.659 5.6 14.6135 5.6H9.38687C8.34144 5.6 7.81834 5.6 7.41903 5.77157C7.0678 5.92249 6.78244 6.16312 6.60348 6.45931C6.40002 6.79604 6.40002 7.23717 6.40002 8.11876Z" fill="#F78938" stroke="#F78938" stroke-width="1.6" stroke-linecap="round" stroke-linejoin="round"/>
</svg>
