<svg width="14" height="16" viewBox="0 0 14 16" fill="none" xmlns="http://www.w3.org/2000/svg">
<path d="M0 3.14845V12.4803C0 13.8193 0 14.4887 0.238138 14.8984C0.67952 15.6578 1.64684 16.0943 2.64095 15.9827C3.1773 15.9225 3.83791 15.5512 5.15912 14.8084L5.16228 14.8066C5.68597 14.5122 5.94784 14.365 6.22178 14.2833C6.72491 14.1334 7.27389 14.1334 7.77702 14.2833C8.05151 14.3651 8.31441 14.5129 8.8402 14.8085C10.1614 15.5513 10.8228 15.9224 11.3591 15.9826C12.3532 16.0941 13.3205 15.6578 13.7619 14.8984C14 14.4887 14 13.8191 14 12.4803V3.14522C14 2.04538 14 1.49464 13.7459 1.07414C13.5222 0.703905 13.1643 0.403109 12.7253 0.214462C12.2262 0 11.5737 0 10.2669 0H3.73356C2.42677 0 1.77289 0 1.27376 0.214462C0.834718 0.403109 0.478023 0.703905 0.254318 1.07414C0 1.49505 0 2.04646 0 3.14845Z" fill="#F78938"/>
</svg>
