<svg width="16" height="18" viewBox="0 0 16 18" fill="none" xmlns="http://www.w3.org/2000/svg">
<path d="M1 4.14845V13.4803C1 14.8193 1 15.4887 1.23814 15.8984C1.67952 16.6578 2.64684 17.0943 3.64095 16.9827C4.1773 16.9225 4.83791 16.5512 6.15912 15.8084L6.16228 15.8066C6.68597 15.5122 6.94784 15.365 7.22178 15.2833C7.72491 15.1334 8.27389 15.1334 8.77702 15.2833C9.05151 15.3651 9.31441 15.5129 9.8402 15.8085C11.1614 16.5513 11.8228 16.9224 12.3591 16.9826C13.3532 17.0941 14.3205 16.6578 14.7619 15.8984C15 15.4887 15 14.8191 15 13.4803V4.14522C15 3.04538 15 2.49464 14.7459 2.07414C14.5222 1.7039 14.1643 1.40311 13.7253 1.21446C13.2262 1 12.5737 1 11.2669 1H4.73356C3.42677 1 2.77289 1 2.27376 1.21446C1.83472 1.40311 1.47802 1.7039 1.25432 2.07414C1 2.49505 1 3.04646 1 4.14845Z" stroke="#F78938" stroke-width="2" stroke-linecap="round" stroke-linejoin="round"/>
</svg>
