<svg width="24" height="25" viewBox="0 0 24 25" fill="none" xmlns="http://www.w3.org/2000/svg">
<path d="M15 9.27246L11 13.2725L9 11.2725M20 10.4375C20 17.0058 15.0319 19.9505 12.9258 20.9038L12.9231 20.905C12.7016 21.0053 12.5906 21.0555 12.3389 21.0987C12.1795 21.1261 11.8215 21.1261 11.6621 21.0987C11.4094 21.0554 11.2972 21.0049 11.074 20.9039C8.9678 19.9505 4 17.0058 4 10.4375V6.47266C4 5.35255 4 4.79208 4.21799 4.36426C4.40973 3.98793 4.71547 3.68219 5.0918 3.49045C5.51962 3.27246 6.08009 3.27246 7.2002 3.27246H16.8002C17.9203 3.27246 18.4796 3.27246 18.9074 3.49045C19.2837 3.68219 19.5905 3.98793 19.7822 4.36426C20 4.79166 20 5.35146 20 6.46937V10.4375Z" stroke="#F78938" stroke-width="2" stroke-linecap="round" stroke-linejoin="round"/>
</svg>
