<svg width="16" height="16" viewBox="0 0 16 16" fill="none" xmlns="http://www.w3.org/2000/svg">
<path d="M3.16544 5.09667L2.94462 7.52564C2.91192 7.88537 2.89543 8.06675 2.92536 8.23892C2.95211 8.39276 3.00553 8.54079 3.08347 8.6761C3.17103 8.82811 3.30045 8.95753 3.55781 9.21489L7.00814 12.6652C7.53284 13.1899 7.79532 13.4524 8.0988 13.551C8.36659 13.638 8.65552 13.6382 8.92331 13.5512C9.22775 13.4523 9.4923 13.1881 10.0203 12.66L12.6602 10.0202C13.1882 9.49215 13.4518 9.22826 13.5507 8.92382C13.6377 8.65603 13.6372 8.36742 13.5502 8.09963C13.4513 7.79519 13.1881 7.53135 12.6601 7.00333L9.21823 3.56152C8.95852 3.30181 8.82862 3.17193 8.67592 3.08398C8.54061 3.00604 8.39258 2.95239 8.23874 2.92564C8.06512 2.89545 7.88214 2.91205 7.51637 2.9453L5.09649 3.16529C4.46665 3.22255 4.15153 3.25131 3.90508 3.38835C3.6878 3.50918 3.50867 3.68831 3.38785 3.90559C3.25148 4.15081 3.22304 4.46369 3.16635 5.08727L3.16544 5.09667Z" fill="#B4B4B4"/>
<path d="M6.47522 6.4753C6.73557 6.21495 6.73557 5.79284 6.47522 5.53249C6.21487 5.27214 5.79246 5.27214 5.53211 5.53249C5.27176 5.79284 5.27151 6.21485 5.53186 6.4752C5.79221 6.73555 6.21487 6.73565 6.47522 6.4753Z" fill="#B4B4B4"/>
</svg>
