<svg width="35" height="16" viewBox="0 0 35 16" fill="none" xmlns="http://www.w3.org/2000/svg">
<rect width="35" height="16" rx="4" fill="#C8F5DA"/>
<path d="M5.01953 12V4.92969H9.76562V6.14062H6.48438V7.85938H9.52148V9.07031H6.48438V10.7891H9.77539V12H5.01953ZM12.0898 12H10.5078L12.959 4.92969H14.8438L17.2852 12H15.7129L15.1855 10.3691H12.627L12.0898 12ZM12.998 9.22656H14.8145L13.9258 6.52148H13.877L12.998 9.22656ZM21.7578 6.95117C21.6992 6.39453 21.25 6.0625 20.5371 6.0625C19.7949 6.0625 19.3848 6.4043 19.375 6.87305C19.3652 7.38086 19.9023 7.61523 20.5078 7.75195L21.1426 7.9082C22.3535 8.18164 23.2617 8.79688 23.2617 9.97852C23.2617 11.2773 22.2461 12.0977 20.5273 12.0977C18.8184 12.0977 17.7246 11.3066 17.6855 9.79297H19.1113C19.1602 10.5059 19.7266 10.8672 20.5078 10.8672C21.2793 10.8672 21.7773 10.5059 21.7773 9.97852C21.7773 9.5 21.3379 9.27539 20.5664 9.08008L19.7949 8.89453C18.6035 8.60156 17.8711 8.00586 17.8711 6.9707C17.8711 5.68164 19.0039 4.83203 20.5469 4.83203C22.1094 4.83203 23.1445 5.70117 23.1641 6.95117H21.7578ZM23.7891 4.92969H25.4395L27.0703 7.97656H27.1387L28.7598 4.92969H30.4102L27.832 9.48047V12H26.3672V9.48047L23.7891 4.92969Z" fill="#006259"/>
</svg>
