<svg width="36" height="16" viewBox="0 0 36 16" fill="none" xmlns="http://www.w3.org/2000/svg">
<rect width="36" height="16" rx="4" fill="#FFBBBB"/>
<path d="M4.74316 12V4.92969H6.20801V7.85938H9.27441V4.92969H10.749V12H9.27441V9.07031H6.20801V12H4.74316ZM13.1221 12H11.54L13.9912 4.92969H15.876L18.3174 12H16.7451L16.2178 10.3691H13.6592L13.1221 12ZM14.0303 9.22656H15.8467L14.958 6.52148H14.9092L14.0303 9.22656ZM19.1182 12V4.92969H21.8916C23.5029 4.92969 24.4209 5.83789 24.4209 7.23438C24.4209 8.20117 23.9766 8.9043 23.1709 9.24609L24.6748 12H23.0537L21.7061 9.49023H20.583V12H19.1182ZM20.583 8.29883H21.6182C22.4873 8.29883 22.9072 7.9375 22.9072 7.23438C22.9072 6.52148 22.4873 6.13086 21.6182 6.13086H20.583V8.29883ZM27.9268 12H25.4365V4.92969H27.9561C30.085 4.92969 31.3838 6.25781 31.3838 8.45508C31.3838 10.6719 30.085 12 27.9268 12ZM26.9014 10.7402H27.8682C29.2158 10.7402 29.9189 10.0371 29.9189 8.45508C29.9189 6.88281 29.2158 6.18945 27.8779 6.18945H26.9014V10.7402Z" fill="#FF3E3E"/>
</svg>
