<svg width="36" height="16" viewBox="0 0 36 16" fill="none" xmlns="http://www.w3.org/2000/svg">
<rect width="36" height="16" rx="4" fill="#C2C6C4"/>
<path d="M10.6953 4.92969V12H9.42578L6.32031 7.50781H6.26172V12H4.79688V4.92969H6.08594L9.17188 9.42188H9.24023V4.92969H10.6953ZM18.3613 8.46484C18.3613 10.7695 16.9258 12.0977 15.0605 12.0977C13.1758 12.0977 11.75 10.7598 11.75 8.46484C11.75 6.16016 13.1758 4.83203 15.0605 4.83203C16.9258 4.83203 18.3613 6.16016 18.3613 8.46484ZM16.8672 8.46484C16.8672 6.95117 16.1543 6.13086 15.0605 6.13086C13.9668 6.13086 13.2441 6.95117 13.2441 8.46484C13.2441 9.97852 13.9668 10.7988 15.0605 10.7988C16.1543 10.7988 16.8672 9.97852 16.8672 8.46484ZM25.3145 4.92969V12H24.0449L20.9395 7.50781H20.8809V12H19.416V4.92969H20.7051L23.791 9.42188H23.8594V4.92969H25.3145ZM26.5059 12V4.92969H31.252V6.14062H27.9707V7.85938H31.0078V9.07031H27.9707V10.7891H31.2617V12H26.5059Z" fill="#707070"/>
</svg>
