<svg width="51" height="16" viewBox="0 0 51 16" fill="none" xmlns="http://www.w3.org/2000/svg">
<rect width="51" height="16" rx="4" fill="#FFEE8C"/>
<path d="M10.793 4.92969V12H9.52344L6.41797 7.50781H6.35938V12H4.89453V4.92969H6.18359L9.26953 9.42188H9.33789V4.92969H10.793ZM18.459 8.46484C18.459 10.7695 17.0234 12.0977 15.1582 12.0977C13.2734 12.0977 11.8477 10.7598 11.8477 8.46484C11.8477 6.16016 13.2734 4.83203 15.1582 4.83203C17.0234 4.83203 18.459 6.16016 18.459 8.46484ZM16.9648 8.46484C16.9648 6.95117 16.252 6.13086 15.1582 6.13086C14.0645 6.13086 13.3418 6.95117 13.3418 8.46484C13.3418 9.97852 14.0645 10.7988 15.1582 10.7988C16.252 10.7988 16.9648 9.97852 16.9648 8.46484ZM19.5137 12V4.92969H22.2871C23.8984 4.92969 24.8164 5.83789 24.8164 7.23438C24.8164 8.20117 24.3721 8.9043 23.5664 9.24609L25.0703 12H23.4492L22.1016 9.49023H20.9785V12H19.5137ZM20.9785 8.29883H22.0137C22.8828 8.29883 23.3027 7.9375 23.3027 7.23438C23.3027 6.52148 22.8828 6.13086 22.0137 6.13086H20.9785V8.29883ZM25.832 4.92969H27.6484L29.6113 9.72461H29.6895L31.6523 4.92969H33.4688V12H32.043V7.37109H31.9844L30.1387 11.9707H29.1621L27.3164 7.35156H27.2578V12H25.832V4.92969ZM35.8418 12H34.2598L36.7109 4.92969H38.5957L41.0371 12H39.4648L38.9375 10.3691H36.3789L35.8418 12ZM36.75 9.22656H38.5664L37.6777 6.52148H37.6289L36.75 9.22656ZM41.8379 12V4.92969H43.3027V10.7891H46.3496V12H41.8379Z" fill="#F78938"/>
</svg>
