<svg width="16" height="16" viewBox="0 0 16 16" fill="none" xmlns="http://www.w3.org/2000/svg">
<path d="M6.25115 3.62861C6.09929 3.24895 5.73159 3 5.32269 3H3.94734C3.42414 3 3 3.42405 3 3.94727C3 8.39462 6.6053 12 11.0525 12C11.5757 12 11.9998 11.5758 11.9998 11.0526L12 9.67699C12 9.26808 11.7511 8.90043 11.3715 8.74857L10.0533 8.22147C9.71226 8.08506 9.32398 8.14645 9.04182 8.3816L8.70161 8.66534C8.3043 8.99645 7.71969 8.97012 7.35399 8.6044L6.39602 7.64553C6.03032 7.27981 6.00329 6.69567 6.33439 6.29834L6.61807 5.95815C6.85321 5.67598 6.91514 5.28758 6.77873 4.94655L6.25115 3.62861Z" fill="#B4B4B4"/>
</svg>
