<svg width="9" height="9" viewBox="0 0 9 9" fill="none" xmlns="http://www.w3.org/2000/svg">
<path d="M3.25115 0.62861C3.09929 0.248951 2.73159 0 2.32269 0H0.947344C0.42414 0 0 0.424049 0 0.947266C0 5.39462 3.6053 9 8.05253 9C8.57573 9 8.99977 8.57582 8.99977 8.0526L9 6.67699C9 6.26808 8.75112 5.90043 8.37147 5.74857L7.05328 5.22147C6.71226 5.08506 6.32398 5.14645 6.04182 5.3816L5.70161 5.66534C5.3043 5.99645 4.71969 5.97012 4.35399 5.6044L3.39602 4.64553C3.03032 4.27981 3.00329 3.69567 3.33439 3.29834L3.61807 2.95815C3.85321 2.67598 3.91514 2.28758 3.77873 1.94655L3.25115 0.62861Z" fill="#B4B4B4"/>
</svg>
