<svg width="16" height="16" viewBox="0 0 16 16" fill="none" xmlns="http://www.w3.org/2000/svg">
<path d="M14 13.3335C14 12.1724 12.8869 11.1846 11.3333 10.8185M10 13.3335C10 11.8607 8.20914 10.6668 6 10.6668C3.79086 10.6668 2 11.8607 2 13.3335M10 8.66683C11.4728 8.66683 12.6667 7.47292 12.6667 6.00016C12.6667 4.5274 11.4728 3.3335 10 3.3335M6 8.66683C4.52724 8.66683 3.33333 7.47292 3.33333 6.00016C3.33333 4.5274 4.52724 3.3335 6 3.3335C7.47276 3.3335 8.66667 4.5274 8.66667 6.00016C8.66667 7.47292 7.47276 8.66683 6 8.66683Z" stroke="currentColor" stroke-width="1.6" stroke-linecap="round" stroke-linejoin="round"/>
</svg>
